<svg width="45" height="51" viewBox="0 0 45 51" fill="none" xmlns="http://www.w3.org/2000/svg">
<path d="M9.81641 40.901H34.3578V35.9095H9.81641V40.901Z" fill="#2CBEFF"/>
<path d="M34.3578 30.9181H9.81641V25.9266H34.3578V30.9181Z" fill="#2CBEFF"/>
<path d="M9.81641 20.9352H19.633V15.9437H9.81641V20.9352Z" fill="#2CBEFF"/>
<path fill-rule="evenodd" clip-rule="evenodd" d="M7.36241 0.969299C5.40978 0.969299 3.53712 1.75813 2.1564 3.16225C0.775681 4.56637 0 6.47077 0 8.4565V43.3968C0 45.3825 0.775681 47.2869 2.1564 48.691C3.53712 50.0951 5.40978 50.884 7.36241 50.884H36.8121C38.7647 50.884 40.6374 50.0951 42.0181 48.691C43.3988 47.2869 44.1745 45.3825 44.1745 43.3968V18.4394C44.1745 13.8061 42.3646 9.36247 39.1429 6.08618C35.9212 2.8099 31.5517 0.969299 26.9955 0.969299H7.36241ZM7.36241 5.96077H24.5414V18.4394H39.2662V43.3968C39.2662 44.0587 39.0076 44.6935 38.5474 45.1615C38.0872 45.6296 37.4629 45.8925 36.8121 45.8925H7.36241C6.71154 45.8925 6.08732 45.6296 5.62708 45.1615C5.16684 44.6935 4.90828 44.0587 4.90828 43.3968V8.4565C4.90828 7.79459 5.16684 7.15979 5.62708 6.69175C6.08732 6.22371 6.71154 5.96077 7.36241 5.96077ZM29.4497 6.21034C31.3786 6.61221 33.1843 7.47939 34.7149 8.7389C36.2456 9.99841 37.4563 11.6134 38.2453 13.448H29.4497V6.21034Z" fill="#2CBEFF"/>
</svg>
