<svg width="78" height="46" viewBox="0 0 78 46" fill="none" xmlns="http://www.w3.org/2000/svg">
<path d="M38.7579 0L37.9898 0.237094L7.31304 10.6892L0.338379 13.0277L4.39998 14.3505V36.1881C2.93486 37.0542 1.94584 38.634 1.94584 40.4808C1.94584 41.8046 2.46296 43.0742 3.38344 44.0103C4.30392 44.9464 5.55236 45.4723 6.85412 45.4723C8.15587 45.4723 9.40431 44.9464 10.3248 44.0103C11.2453 43.0742 11.7624 41.8046 11.7624 40.4808C11.7624 38.634 10.7734 37.0542 9.30825 36.1881V16.0725L14.2165 17.7072V30.4979C14.2165 32.5444 15.4436 34.2415 16.9014 35.4145C18.3591 36.58 20.1703 37.4036 22.3446 38.1423C26.6983 39.6148 32.4361 40.4808 38.7579 40.4808C45.0798 40.4808 50.8175 39.6173 55.1712 38.1398C57.3456 37.4036 59.1567 36.58 60.6145 35.412C62.0722 34.2415 63.2993 32.5444 63.2993 30.4979V17.7072L70.2028 15.3662L77.1774 13.0277L70.2003 10.6867L39.5236 0.237094L38.7579 0ZM38.7579 5.22856L61.7655 13.0277L38.7579 20.8269L15.7504 13.0277L38.7579 5.22856ZM19.1248 19.4243L37.9922 25.8184L38.7579 26.053L39.5261 25.8159L58.391 19.4218V30.4979C58.391 30.5228 58.4008 30.8123 57.6229 31.4338C56.8474 32.0577 55.4559 32.8438 53.6349 33.4628C49.9979 34.6932 44.6356 35.4893 38.7579 35.4893C32.8802 35.4893 27.518 34.6957 23.8785 33.4603C22.0624 32.8439 20.6685 32.0552 19.893 31.4338C19.1125 30.8098 19.1248 30.5228 19.1248 30.4979V19.4218V19.4243Z" fill="#10C35B"/>
</svg>
