<svg width="23" height="26" viewBox="0 0 23 26" fill="none" xmlns="http://www.w3.org/2000/svg">
<path d="M13.7647 0V6.88235C13.7647 7.49079 14.0064 8.07431 14.4366 8.50454C14.8669 8.93477 15.4504 9.17647 16.0588 9.17647H22.9412V22.1765C22.9412 22.7849 22.6995 23.3684 22.2692 23.7987C21.839 24.2289 21.2555 24.4706 20.6471 24.4706H13.3716C14.5139 23.0873 15.1841 21.3751 15.2842 19.584C15.3843 17.7928 14.9092 16.0166 13.9282 14.5146C12.9472 13.0127 11.5118 11.8637 9.83146 11.2354C8.15114 10.6071 6.31397 10.5325 4.58823 11.0225V2.29412C4.58823 1.68568 4.82994 1.10216 5.26017 0.671932C5.6904 0.241701 6.27391 0 6.88235 0H13.7647ZM15.2941 0.382353V6.88235C15.2941 7.08517 15.3747 7.27967 15.5181 7.42308C15.6615 7.56649 15.856 7.64706 16.0588 7.64706H22.5588L15.2941 0.382353ZM6.88235 26C8.70767 26 10.4582 25.2749 11.7489 23.9842C13.0396 22.6935 13.7647 20.943 13.7647 19.1176C13.7647 17.2923 13.0396 15.5418 11.7489 14.2511C10.4582 12.9604 8.70767 12.2353 6.88235 12.2353C5.05704 12.2353 3.30649 12.9604 2.01579 14.2511C0.725103 15.5418 0 17.2923 0 19.1176C0 20.943 0.725103 22.6935 2.01579 23.9842C3.30649 25.2749 5.05704 26 6.88235 26ZM10.4826 18.5762C10.6262 18.7198 10.7068 18.9146 10.7068 19.1176C10.7068 19.3207 10.6262 19.5155 10.4826 19.6591C10.339 19.8027 10.1442 19.8833 9.94118 19.8833C9.73811 19.8833 9.54335 19.8027 9.39976 19.6591L7.64706 17.9048V22.1765C7.64706 22.3793 7.56649 22.5738 7.42308 22.7172C7.27967 22.8606 7.08517 22.9412 6.88235 22.9412C6.67954 22.9412 6.48503 22.8606 6.34162 22.7172C6.19821 22.5738 6.11765 22.3793 6.11765 22.1765V17.9048L4.36494 19.6591C4.22155 19.8027 4.027 19.8834 3.82407 19.8835C3.62114 19.8837 3.42647 19.8032 3.28288 19.6598C3.13929 19.5164 3.05854 19.3219 3.0584 19.119C3.05825 18.916 3.13873 18.7214 3.28212 18.5778L6.34094 15.5189C6.48325 15.3762 6.67619 15.2954 6.87776 15.2941H6.88694C7.08634 15.295 7.27743 15.3741 7.41918 15.5144L7.42376 15.5189L10.4826 18.5778V18.5762Z" fill="white"/>
</svg>
