<svg width="30" height="30" viewBox="0 0 30 30" fill="none" xmlns="http://www.w3.org/2000/svg">
<path d="M15.0018 10.9374C12.7582 10.9374 10.9393 12.7563 10.9393 14.9999C10.9393 17.2436 12.7582 19.0624 15.0018 19.0624C17.2455 19.0624 19.0643 17.2436 19.0643 14.9999C19.0643 12.7563 17.2455 10.9374 15.0018 10.9374Z" fill="white"/>
<path fill-rule="evenodd" clip-rule="evenodd" d="M8.46374 3.85177C12.7739 3.37005 17.2298 3.37005 21.5399 3.85177C23.9129 4.11699 25.8269 5.98671 26.1054 8.36803C26.6208 12.7743 26.6208 17.2256 26.1054 21.6318C25.8269 24.0132 23.9129 25.8829 21.5399 26.1481C17.2298 26.6298 12.7739 26.6298 8.46374 26.1481C6.09074 25.8829 4.17675 24.0132 3.89823 21.6318C3.38288 17.2256 3.38288 12.7743 3.89823 8.36803C4.17675 5.98671 6.09074 4.11699 8.46374 3.85177ZM21.2518 7.49993C20.5615 7.49993 20.0018 8.05958 20.0018 8.74993C20.0018 9.44029 20.5615 9.99993 21.2518 9.99993C21.9422 9.99993 22.5018 9.44029 22.5018 8.74993C22.5018 8.05958 21.9422 7.49993 21.2518 7.49993ZM9.06432 14.9999C9.06432 11.7207 11.7226 9.06243 15.0018 9.06243C18.281 9.06243 20.9393 11.7207 20.9393 14.9999C20.9393 18.2791 18.281 20.9374 15.0018 20.9374C11.7226 20.9374 9.06432 18.2791 9.06432 14.9999Z" fill="white"/>
</svg>
