<svg width="61" height="60" viewBox="0 0 61 60" fill="none" xmlns="http://www.w3.org/2000/svg">
<g clip-path="url(#clip0)">
<path d="M56.866 6.10013C56.6557 5.73866 56.2682 5.51628 55.8491 5.51628H50.1837L47.3434 0.592359C47.1336 0.228783 46.745 0.00463867 46.3242 0.00463867H39.9723C39.5523 0.00463867 39.1641 0.227963 38.9541 0.590602L36.3436 5.09775L34.2915 4.02319C34.3152 3.85868 34.3282 3.69066 34.3282 3.51971C34.3282 1.5815 32.746 0.00463867 30.8013 0.00463867C28.8566 0.00463867 27.2744 1.5815 27.2744 3.51971C27.2744 5.45793 28.8566 7.03479 30.8013 7.03479C31.7252 7.03479 32.567 6.67836 33.1964 6.09685L35.952 7.53979L38.9574 12.6643C39.1682 13.0238 39.5546 13.2448 39.9723 13.2448H45.632L48.1195 17.6468L45.7536 21.1977C45.4827 21.1312 45.2 21.0951 44.9088 21.0951C42.9641 21.0951 41.3819 22.672 41.3819 24.6102C41.3819 26.5484 42.9641 28.1252 44.9088 28.1252C45.4439 28.1252 45.9607 28.0069 46.4297 27.783L48.779 30.1245C48.5545 30.5919 48.4356 31.107 48.4356 31.6403C48.4356 33.5785 50.0178 35.1554 51.9625 35.1554C53.9072 35.1554 55.4894 33.5785 55.4894 31.6403C55.4894 29.7021 53.9072 28.1252 51.9625 28.1252C51.4274 28.1252 50.9106 28.2436 50.4416 28.4675L48.0922 26.126C48.3168 25.6586 48.4356 25.1435 48.4356 24.6102C48.4356 23.8129 48.1676 23.0772 47.7171 22.4868L50.1277 18.8689H55.8491C56.2713 18.8689 56.6611 18.6432 56.8704 18.2778L60.0469 12.7275C60.2544 12.3649 60.2528 11.9199 60.0427 11.559L56.866 6.10013ZM30.8013 4.69141C30.153 4.69141 29.6257 4.16579 29.6257 3.51971C29.6257 2.87364 30.153 2.34802 30.8013 2.34802C31.4495 2.34802 31.9769 2.87364 31.9769 3.51971C31.9769 4.16579 31.4495 4.69141 30.8013 4.69141ZM38.1565 6.65504L40.651 2.34802H45.644L48.1407 6.67625L45.6513 10.9014H40.6469L38.1565 6.65504ZM43.7331 24.6102C43.7331 23.9641 44.2605 23.4385 44.9088 23.4385C45.557 23.4385 46.0844 23.9641 46.0844 24.6102C46.0844 25.2571 45.5578 25.7819 44.9088 25.7819C44.2605 25.7819 43.7331 25.2562 43.7331 24.6102ZM53.1381 31.6403C53.1381 32.2864 52.6108 32.812 51.9625 32.812C51.3143 32.812 50.7869 32.2864 50.7869 31.6403C50.7869 30.9934 51.3135 30.4686 51.9625 30.4686C52.6108 30.4686 53.1381 30.9942 53.1381 31.6403ZM55.1662 16.5255H50.1844L47.6778 12.0896L50.1702 7.85497H55.1719L57.6695 12.1517L55.1662 16.5255Z" fill="white"/>
<path d="M22.6895 24.1415C22.3033 24.1415 21.9418 24.3305 21.7222 24.6472C20.9526 25.7575 19.1626 28.5017 19.1626 29.9999C19.1626 31.9382 20.7448 33.515 22.6895 33.515C24.6342 33.515 26.2163 31.9382 26.2163 29.9999C26.2163 28.5017 24.4263 25.7575 23.6568 24.6472C23.4372 24.3305 23.0757 24.1415 22.6895 24.1415ZM22.6895 31.1716C22.0412 31.1716 21.5138 30.646 21.5138 30.0013C21.5234 29.643 22.0124 28.6219 22.6897 27.4847C23.3664 28.6206 23.8551 29.6414 23.8651 30.001C23.8646 30.6466 23.3375 31.1716 22.6895 31.1716Z" fill="white"/>
<path d="M22.6895 59.9953C23.3388 59.9953 23.8652 59.4708 23.8652 58.8237C23.8652 58.1766 23.3388 57.652 22.6895 57.652C22.0403 57.652 21.5139 58.1766 21.5139 58.8237C21.5139 59.4708 22.0403 59.9953 22.6895 59.9953Z" fill="white"/>
<path d="M31.2716 27.3677V17.1113H32.4472C33.0965 17.1113 33.6228 16.5866 33.6228 15.9396V11.2529C33.6228 10.6059 33.0965 10.0812 32.4472 10.0812H12.9319C12.2826 10.0812 11.7562 10.6059 11.7562 11.2529V15.9396C11.7562 16.5866 12.2826 17.1113 12.9319 17.1113H14.1075V27.3677L0.558304 53.0927C0.193037 53.7704 0 54.5365 0 55.3085C0 57.8928 2.10954 59.9952 4.7025 59.9952H17.3992C18.0485 59.9952 18.5749 59.4706 18.5749 58.8236C18.5749 58.1766 18.0485 57.6519 17.3992 57.6519H4.7025C3.40602 57.6519 2.35125 56.6006 2.35125 55.3085C2.35125 54.9155 2.44542 54.542 2.63128 54.1983C2.6334 54.1946 9.82245 40.5452 9.82245 40.5452H35.5565C35.5565 40.5452 42.7456 54.1946 42.7477 54.1983C42.9335 54.542 43.0277 54.9154 43.0277 55.3085C43.0277 56.6006 41.9729 57.6519 40.6765 57.6519H27.9798C27.3306 57.6519 26.8042 58.1766 26.8042 58.8236C26.8042 59.4706 27.3306 59.9952 27.9798 59.9952H40.6766C43.2695 59.9952 45.3791 57.8928 45.3791 55.3085C45.3791 54.5365 45.186 53.7704 44.8208 53.0927L31.2716 27.3677ZM14.1075 12.4246H31.2716V14.7679H14.1075V12.4246ZM11.0567 38.2018L16.324 28.201C16.4124 28.033 16.4587 27.8463 16.4587 27.6566V17.1113H28.9203V27.6566C28.9203 27.8463 28.9665 28.0331 29.0551 28.201L34.3223 38.2018H11.0567Z" fill="white"/>
</g>
<defs>
<clipPath id="clip0">
<rect width="60.2013" height="60" fill="white"/>
</clipPath>
</defs>
</svg>
