<svg width="60" height="59" viewBox="0 0 60 59" fill="none" xmlns="http://www.w3.org/2000/svg">
<g clip-path="url(#clip0)">
<path d="M54.986 21.8683C54.8806 21.7633 54.7734 21.6607 54.6653 21.5593V18.2381C54.6653 14.9356 51.9695 12.2488 48.6559 12.2488H38.1148V9.23889C38.1148 6.02546 35.4917 3.41125 32.2676 3.41125H22.3979C19.1737 3.41125 16.5507 6.02546 16.5507 9.23889V12.2488H6.0094C2.69582 12.2488 0 14.9356 0 18.2381V44.8977C0 48.2002 2.69582 50.887 6.0094 50.887H18.5561C19.035 50.887 19.4233 50.5001 19.4233 50.0228C19.4233 49.5455 19.035 49.1585 18.5561 49.1585H6.0094C3.65201 49.1585 1.7342 47.2471 1.7342 44.8976V27.4626C3.43221 29.9729 6.22539 31.6891 9.4252 31.9254V35.072C9.4252 36.8691 10.8922 38.3312 12.6953 38.3312C14.4985 38.3312 15.9655 36.8691 15.9655 35.072V31.9537H30.4562C30.4562 31.9675 30.4557 31.9812 30.4557 31.995C30.4557 34.938 31.3413 37.745 32.9852 40.1152L31.1443 41.95C30.5014 41.7687 29.7811 41.9288 29.2762 42.4323L22.2049 49.4799C20.8052 50.8749 20.8052 53.1448 22.2049 54.5398C23.6079 55.9381 25.8788 55.9383 27.2818 54.5398L34.3531 47.4922C34.8581 46.9889 35.0188 46.2711 34.837 45.6304L36.6795 43.794C41.5521 47.1387 48.0473 47.1493 52.9312 43.8211V44.8977C52.9312 47.2472 51.0134 49.1586 48.656 49.1586H34.9591C34.4802 49.1586 34.0919 49.5456 34.0919 50.0229C34.0919 50.5002 34.4802 50.8871 34.9591 50.8871H48.6559C51.9695 50.8871 54.6653 48.2003 54.6653 44.8978V42.431C54.7733 42.3298 54.8805 42.2273 54.986 42.1221C60.6016 36.5252 60.6023 27.4659 54.986 21.8683ZM18.2848 9.23889C18.2848 6.97857 20.1299 5.13966 22.3978 5.13966H32.2675C34.5354 5.13966 36.3805 6.97857 36.3805 9.23889V12.2488H34.5307V9.23889C34.5307 7.99516 33.5154 6.98329 32.2675 6.98329H22.3978C21.1499 6.98329 20.1346 7.99516 20.1346 9.23889V12.2488H18.2848V9.23889ZM21.8688 12.2488V9.23889C21.8688 8.94827 22.1061 8.71181 22.3978 8.71181H32.2675C32.5592 8.71181 32.7965 8.94827 32.7965 9.23889V12.2488H21.8688ZM14.2313 32.4156H11.1595V29.5062C11.1595 28.6621 11.8485 27.9754 12.6954 27.9754C13.5423 27.9754 14.2313 28.6621 14.2313 29.5062V32.4156ZM12.6954 36.6029C11.8485 36.6029 11.1595 35.9162 11.1595 35.0721V34.144H14.2313V35.0721C14.2313 35.9162 13.5423 36.6029 12.6954 36.6029ZM15.9655 30.2254V29.5062C15.9655 27.7091 14.4985 26.247 12.6953 26.247C10.8922 26.247 9.4252 27.7091 9.4252 29.5062V30.1896C5.12028 29.8052 1.7342 26.1915 1.7342 21.8027V18.2381C1.7342 15.8886 3.65201 13.9772 6.0094 13.9772H48.6559C51.0133 13.9772 52.9311 15.8886 52.9311 18.2381V20.1661C47.4478 16.4167 39.7238 16.8257 34.6645 21.8682C32.3734 24.1515 30.9514 27.07 30.5637 30.2253H15.9655V30.2254ZM26.0554 53.3178C25.3303 54.0405 24.1564 54.0406 23.4311 53.3178C23.0805 52.9684 22.8875 52.504 22.8875 52.01C22.8875 51.516 23.0805 51.0515 23.4311 50.7022L28.3298 45.8198L30.9542 48.4354L26.0554 53.3178ZM33.1267 46.2701L32.1805 47.2132L29.5561 44.5976L30.5023 43.6546C30.5356 43.6215 30.5792 43.6049 30.6228 43.6049C30.6664 43.6049 30.71 43.6215 30.7432 43.6544C30.7434 43.6546 30.7435 43.6548 30.7438 43.6549L33.1267 46.0299C33.1931 46.0961 33.1931 46.2039 33.1267 46.2701ZM33.7814 44.238L32.5412 43.002L34.0636 41.4847C34.2569 41.7019 34.4567 41.9149 34.6645 42.1218C34.8727 42.3294 35.0864 42.5283 35.304 42.7204L33.7814 44.238ZM35.8907 40.8998C33.5042 38.5213 32.1899 35.3588 32.1899 31.9951C32.1899 28.6315 33.5042 25.469 35.8907 23.0905C40.8285 18.1692 48.8213 18.1685 53.7598 23.0905C58.6976 28.0117 58.6983 35.9779 53.7598 40.8998C48.8218 45.8212 40.8292 45.8218 35.8907 40.8998Z" fill="white"/>
<path d="M54.3384 33.1818C53.8705 33.0804 53.4085 33.3761 53.3068 33.8427C52.954 35.4599 52.1437 36.9365 50.9634 38.1127C47.571 41.4937 42.08 41.494 38.6872 38.1127C35.3027 34.7394 35.3027 29.2508 38.6872 25.8776C42.0797 22.4965 47.5706 22.4962 50.9634 25.8776C52.1424 27.0526 52.9525 28.5276 53.3059 30.1431C53.4079 30.6094 53.87 30.9055 54.3378 30.8034C54.8057 30.7018 55.1023 30.2413 55.0003 29.7749C54.576 27.8353 53.6041 26.0651 52.1898 24.6554C48.1196 20.5988 41.5317 20.5984 37.4611 24.6554C33.4003 28.7026 33.4003 35.2877 37.4611 39.3349C41.5217 43.3819 48.1289 43.3821 52.1898 39.3349C53.6056 37.9238 54.5779 36.1516 55.0015 34.2099C55.1031 33.7436 54.8063 33.2833 54.3384 33.1818Z" fill="white"/>
</g>
<defs>
<clipPath id="clip0">
<rect width="59.198" height="59" fill="white"/>
</clipPath>
</defs>
</svg>
