<svg width="20" height="25" viewBox="0 0 20 25" fill="none" xmlns="http://www.w3.org/2000/svg">
<path d="M10 0V7.5C10 8.16304 10.2634 8.79893 10.7322 9.26777C11.2011 9.73661 11.837 10 12.5 10H20V22.5C20 23.163 19.7366 23.7989 19.2678 24.2678C18.7989 24.7366 18.163 25 17.5 25H2.5C1.83696 25 1.20107 24.7366 0.732233 24.2678C0.263392 23.7989 0 23.163 0 22.5V2.5C0 1.83696 0.263392 1.20107 0.732233 0.732233C1.20107 0.263392 1.83696 0 2.5 0H10ZM11.875 0.625V7.5C11.875 7.66576 11.9408 7.82473 12.0581 7.94194C12.1753 8.05915 12.3342 8.125 12.5 8.125H19.375L11.875 0.625Z" fill="white"/>
</svg>
