<svg width="27" height="27" viewBox="0 0 27 27" fill="none" xmlns="http://www.w3.org/2000/svg">
<path d="M3.78543 3.78572C3.78543 2.78168 4.18428 1.81877 4.89424 1.10881C5.6042 0.398851 6.56711 0 7.57115 0C8.57518 0 9.5381 0.398851 10.2481 1.10881C10.958 1.81877 11.3569 2.78168 11.3569 3.78572C11.3569 4.78975 10.958 5.75267 10.2481 6.46262C9.5381 7.17258 8.57518 7.57144 7.57115 7.57144C6.56711 7.57144 5.6042 7.17258 4.89424 6.46262C4.18428 5.75267 3.78543 4.78975 3.78543 3.78572Z" fill="white"/>
<path d="M16.6172 6.78404L16.6967 6.84462C17.4998 7.43993 18.5058 7.69341 19.4951 7.54973C20.4845 7.40605 21.3768 6.87687 21.9774 6.0777C22.578 5.27852 22.8381 4.27421 22.701 3.28396C22.5638 2.2937 22.0405 1.3979 21.2453 0.792031C20.4501 0.186165 19.4476 -0.0805683 18.4564 0.0500401C17.4653 0.180648 16.5661 0.697995 15.955 1.48918C15.3439 2.28036 15.0705 3.28114 15.1946 4.27312C15.3186 5.2651 15.83 6.16774 16.6172 6.78404Z" fill="white"/>
<path d="M9.97249 9.46438C10.2102 9.01419 10.5363 8.61658 10.9313 8.29534C11.3263 7.97409 11.782 7.73581 12.2712 7.59475C12.7603 7.45369 13.2729 7.41274 13.7783 7.47437C14.2837 7.53599 14.7714 7.69892 15.2124 7.9534C15.6533 8.20788 16.0384 8.54869 16.3446 8.95543C16.6508 9.36218 16.8718 9.82651 16.9944 10.3206C17.117 10.8148 17.1387 11.3285 17.0581 11.8312C16.9775 12.3339 16.7964 12.8152 16.5256 13.2463C16.0045 14.0756 15.1823 14.6707 14.2317 14.9066C13.2811 15.1424 12.2761 15.0007 11.4278 14.5111C10.5795 14.0215 9.95394 13.2223 9.68257 12.2812C9.4112 11.3401 9.51511 10.3305 9.97249 9.46438Z" fill="white"/>
<path d="M2.83929 9.46436H7.89322C7.68501 10.0568 7.57144 10.6947 7.57144 11.3572C7.57144 12.8109 8.11847 14.1397 9.01758 15.1429H8.51787C7.54198 15.1428 6.58989 15.4443 5.79193 16.006C4.99397 16.5678 4.38912 17.3625 4.06018 18.2813C3.42481 18.0261 2.82992 17.6798 2.29415 17.2535C0.870715 16.1083 0 14.4161 0 12.3036C0 11.5506 0.299139 10.8284 0.831609 10.296C1.36408 9.76349 2.08626 9.46436 2.83929 9.46436Z" fill="white"/>
<path d="M17.9817 15.1429C20.0354 15.1429 21.7844 16.4509 22.4375 18.2813C23.0811 18.0182 23.6773 17.6756 24.2054 17.2535C25.6288 16.1083 26.4996 14.4161 26.4996 12.3036C26.4996 11.5506 26.2004 10.8284 25.668 10.296C25.1355 9.76349 24.4133 9.46436 23.6603 9.46436H18.6063C18.8146 10.0568 18.9281 10.6947 18.9281 11.3572C18.9299 12.7544 18.4148 14.1028 17.482 15.1429H17.9817Z" fill="white"/>
<path d="M20.6081 18.7922C20.7463 19.1254 20.822 19.4926 20.822 19.8749C20.822 21.9874 19.9532 23.6796 18.5279 24.8248C17.1253 25.951 15.2438 26.5 13.2506 26.5C11.2574 26.5 9.37592 25.951 7.97331 24.8248C6.54988 23.6796 5.67916 21.9874 5.67916 19.8749C5.67816 19.5018 5.75092 19.1321 5.89326 18.7872C6.03559 18.4423 6.24469 18.1289 6.50854 17.865C6.7724 17.6012 7.08579 17.3921 7.43072 17.2497C7.77565 17.1074 8.14531 17.0347 8.51845 17.0357H17.9827C18.5451 17.0355 19.0949 17.2024 19.5623 17.5151C20.0297 17.8279 20.3937 18.2723 20.6081 18.7922Z" fill="white"/>
</svg>
