<svg width="23" height="23" viewBox="0 0 23 23" fill="none" xmlns="http://www.w3.org/2000/svg">
<path d="M19.1667 0H3.83333C2.81667 0 1.84165 0.403868 1.12276 1.12276C0.403868 1.84165 0 2.81667 0 3.83333V19.1667C0 20.1833 0.403868 21.1584 1.12276 21.8772C1.84165 22.5961 2.81667 23 3.83333 23H19.1667C20.1833 23 21.1584 22.5961 21.8772 21.8772C22.5961 21.1584 23 20.1833 23 19.1667V3.83333C23 2.81667 22.5961 1.84165 21.8772 1.12276C21.1584 0.403868 20.1833 0 19.1667 0ZM6.38889 5.11111C6.76797 5.11111 7.13854 5.22352 7.45373 5.43413C7.76893 5.64473 8.01459 5.94408 8.15966 6.2943C8.30473 6.64453 8.34268 7.0299 8.26873 7.4017C8.19477 7.7735 8.01223 8.11502 7.74418 8.38307C7.47613 8.65112 7.13461 8.83366 6.76281 8.90762C6.39102 8.98157 6.00564 8.94361 5.65541 8.79855C5.30519 8.65348 5.00585 8.40781 4.79524 8.09262C4.58463 7.77743 4.47222 7.40686 4.47222 7.02778C4.47222 6.51945 4.67416 6.03193 5.0336 5.67249C5.39305 5.31305 5.88056 5.11111 6.38889 5.11111ZM20.4444 18.9494C20.4727 19.317 20.354 19.6808 20.1145 19.961C19.875 20.2412 19.5341 20.4151 19.1667 20.4444H3.83333L13.5061 11.73C13.6685 11.5818 13.8804 11.4997 14.1003 11.4997C14.3201 11.4997 14.532 11.5818 14.6944 11.73L20.4444 17.4544V18.9494Z" fill="white"/>
</svg>
