<svg width="28" height="28" viewBox="0 0 28 28" fill="none" xmlns="http://www.w3.org/2000/svg">
<path fill-rule="evenodd" clip-rule="evenodd" d="M9.02712 25.0322L8.77205 18.7413L11.6607 18.6282C12.8946 18.7947 14.1438 19.399 15.3995 20.1058L17.6429 20.0183C18.661 20.0397 19.2343 21.0262 18.2729 21.7266C17.5099 22.3224 16.47 22.3309 15.4017 22.2775C14.667 22.2711 14.6736 23.2384 15.4388 23.2107C15.7048 23.2214 15.9925 23.1488 16.2432 23.1381C17.5709 23.0847 18.6544 22.7943 19.2823 21.7394L19.5875 20.9579L22.8598 19.2069C24.508 18.6025 25.6177 20.1251 24.4361 21.3636C22.0881 23.1808 19.8142 24.8378 17.3246 26.0806C15.5282 27.2487 13.6838 27.285 11.8002 26.2963L9.02712 25.0322ZM7.48361 15.4465H27.5187C27.667 15.4465 27.789 15.5682 27.789 15.7112V16.8665C27.789 17.0096 27.667 17.1313 27.5187 17.1313H7.48361C7.33537 17.1313 7.21328 17.0117 7.21328 16.8665V15.7112C7.21328 15.566 7.33537 15.4465 7.48361 15.4465ZM18.2795 4.39803C23.7646 4.82724 28.3842 9.34356 27.7018 14.6606H7.30266C6.62901 9.30939 11.2661 4.78666 16.7905 4.39162V3.52466H15.9184C15.7658 3.52466 15.6394 3.40081 15.6394 3.25133V2.27333C15.6394 2.12385 15.7636 2 15.9184 2H19.1275C19.2801 2 19.4066 2.12385 19.4066 2.27333V3.25133C19.4066 3.40081 19.2801 3.52466 19.1275 3.52466H18.2795V4.39803ZM1 18.5257L7.87821 18.1712L8.18342 25.6984L1.30521 26.0507L1 18.5257Z" fill="#7B43BF"/>
</svg>
