<svg width="28" height="28" viewBox="0 0 28 28" fill="none" xmlns="http://www.w3.org/2000/svg">
<path fill-rule="evenodd" clip-rule="evenodd" d="M18.8877 17.9984L20.2321 19.3492C21.0703 20.1859 22.1861 20.6508 23.4488 20.6508C24.3306 20.6508 25.2123 20.3719 25.909 19.8578V25.7422C25.909 26.4422 25.3539 27 24.6572 27H4.40421C3.70752 27 3.15234 26.4422 3.15234 25.7422V19.8633C3.84903 20.3773 4.68179 20.6562 5.61253 20.6562C6.77186 20.6562 7.83866 20.1914 8.67687 19.3492L10.0213 17.9984L11.3657 19.3492C12.9931 21.0281 15.8724 21.0281 17.5433 19.3492L18.8877 17.9984Z" fill="#004BFF"/>
<path fill-rule="evenodd" clip-rule="evenodd" d="M16.9828 5.08594C16.9828 6.52969 15.8234 7.65078 14.4301 7.65078C13.0367 7.65078 11.8719 6.48594 11.8773 5.08594C11.8773 4.62109 12.0134 4.15078 12.2475 3.77891L14.4301 0L16.6126 3.77891C16.8412 4.15078 16.9828 4.62109 16.9828 5.08594ZM15.6819 11.4352H22.0011C24.1347 11.4352 25.8057 13.1578 25.7567 15.2578V17.2211C25.7567 18.5719 24.6409 19.693 23.2965 19.693C22.5998 19.693 21.9957 19.4086 21.533 18.9437L18.8388 16.2367L16.1446 18.9437C15.1648 19.8789 13.5429 19.8789 12.6121 18.9437L9.9179 16.2367L7.22368 18.9437C6.76103 19.4141 6.10789 19.693 5.46018 19.693C4.11579 19.693 3 18.5719 3 17.2211V15.2633C3 13.1633 4.71995 11.4352 6.81002 11.4352H13.1292V8.87031H15.6819V11.4352Z" fill="#004BFF"/>
</svg>
