<svg width="28" height="28" viewBox="0 0 28 28" fill="none" xmlns="http://www.w3.org/2000/svg">
<g clip-path="url(#clip0_139_1497)">
<path fill-rule="evenodd" clip-rule="evenodd" d="M21.4978 6.27083C22.6708 3.75293 22.6504 1.67253 21.5205 0L14.4984 12.2386L16.2431 15.3467L21.4978 6.27083ZM6.50063 6.27083C5.32763 3.75293 5.34805 1.67253 6.47794 0L14.9748 14.8089C15.3696 15.3216 15.6146 15.8662 15.6464 16.4541C15.6759 17.0033 15.5193 17.2038 15.4309 17.6823C15.3583 18.0833 15.3991 18.4912 15.6646 18.9128L16.0185 19.3024C16.3361 19.651 16.6084 20.0703 17.1461 20.002C17.5046 19.9564 17.8064 19.651 18.0673 19.1611C18.4031 18.7897 18.7956 18.5003 19.2448 18.2998C19.6804 18.1061 20.1682 17.9945 20.715 17.9694C22.428 18.0583 23.9096 18.8604 25.0213 20.7972C26.369 23.0029 26.2148 24.8669 25.2142 26.5348C24.4428 27.5511 23.5125 27.9977 22.453 28C20.8376 28.0023 19.5262 27.223 18.5097 26.0107C17.8653 25.2428 17.3299 24.32 16.7672 23.2923L14.7184 20.6628L14.4779 20.0475L6.50063 6.27083ZM14.0491 15.4492C14.4984 15.4492 14.8614 15.8138 14.8614 16.265C14.8614 16.7161 14.4984 17.0807 14.0491 17.0807C13.6022 17.0807 13.2369 16.7161 13.2369 16.265C13.2369 15.8138 13.5999 15.4492 14.0491 15.4492ZM19.0973 20.5147C19.6759 19.626 20.6515 19.5326 21.5817 19.8607C22.3282 20.125 22.9725 20.6855 23.5171 21.5286C23.9754 22.2396 24.3316 23.3857 24.2408 24.3792C24.0639 26.3047 22.3577 26.6693 20.8693 25.8285C20.2068 25.4548 19.6804 24.901 19.2993 24.1491C19.0429 23.641 18.8251 23.0394 18.7434 22.431C18.6526 21.7588 18.7275 21.0798 19.0973 20.5147ZM12.563 18.3636C12.5245 18.5436 12.4496 18.7259 12.3339 18.9105L11.9799 19.3001C11.6623 19.6488 11.39 20.068 10.8523 19.9997C10.4938 19.9541 10.1921 19.6488 9.93114 19.1589C9.59535 18.7874 9.20284 18.498 8.7536 18.2975C8.31798 18.1038 7.83018 17.9922 7.28338 17.9671C5.57039 18.056 4.08883 18.8581 2.97709 20.7949C1.62938 23.0007 1.78367 24.8646 2.78423 26.5326C3.55565 27.5488 4.48588 27.9954 5.54544 27.9977C7.16086 28 8.47227 27.2207 9.48872 26.0085C10.1331 25.2406 10.6685 24.3177 11.2312 23.29L13.643 20.1956L13.5636 20.0589L13.5386 20.0179L12.563 18.3636ZM8.90335 20.5147C8.32479 19.626 7.34918 19.5326 6.41895 19.8607C5.67249 20.125 5.02814 20.6855 4.48361 21.5286C4.0253 22.2396 3.66909 23.3857 3.76211 24.3815C3.93908 26.307 5.64527 26.6716 7.13364 25.8307C7.79615 25.457 8.32252 24.9033 8.70369 24.1514C8.96007 23.6432 9.17788 23.0417 9.25956 22.4333C9.34805 21.7588 9.2709 21.0798 8.90335 20.5147Z" fill="#FF7A00"/>
</g>
<defs>
<clipPath id="clip0_139_1497">
<rect width="28" height="28" fill="white"/>
</clipPath>
</defs>
</svg>
