<svg width="48" height="53" viewBox="0 0 48 53" fill="none" xmlns="http://www.w3.org/2000/svg">
<path d="M43.8336 47.1429C43.8336 47.4902 43.6956 47.8232 43.4501 48.0688C43.2045 48.3144 42.8714 48.4524 42.5241 48.4524H27.5117C26.7619 49.8893 25.8112 51.2121 24.6884 52.381H42.5241C43.9133 52.381 45.2456 51.8291 46.228 50.8467C47.2103 49.8644 47.7622 48.5321 47.7622 47.1429V20.5019C47.7619 19.1128 47.2098 17.7807 46.2274 16.7986L30.961 1.53476C30.9205 1.49712 30.8776 1.46213 30.8327 1.43C30.8003 1.40499 30.7688 1.37878 30.7384 1.35143C30.5582 1.18138 30.3665 1.02386 30.1648 0.88C30.0977 0.836738 30.0277 0.798231 29.9553 0.764762L29.8296 0.701904L29.6986 0.625953C29.5572 0.544762 29.4131 0.460952 29.2638 0.398095C28.7423 0.189785 28.1903 0.0677139 27.6296 0.0366665C27.5772 0.0340475 27.5248 0.0261904 27.475 0.0183333C27.4039 0.00735457 27.3322 0.00122937 27.2603 0H11.0955C9.70629 0 8.37396 0.551869 7.39162 1.5342C6.40929 2.51654 5.85742 3.84887 5.85742 5.2381V24.8757C7.11748 24.3499 8.43662 23.9788 9.78599 23.7705V5.2381C9.78599 4.89079 9.92396 4.55771 10.1695 4.31212C10.4151 4.06654 10.7482 3.92857 11.0955 3.92857H26.8098V15.7143C26.8098 17.1035 27.3617 18.4358 28.344 19.4182C29.3263 20.4005 30.6587 20.9524 32.0479 20.9524H43.8336V47.1429ZM30.7384 6.86452L40.895 17.0238H32.0479C31.7006 17.0238 31.3675 16.8858 31.1219 16.6403C30.8763 16.3947 30.7384 16.0616 30.7384 15.7143V6.86452Z" fill="#42C5FF"/>
<circle cx="13.5" cy="39.5" r="12" stroke="#2CBEFF" stroke-width="3"/>
<path fill-rule="evenodd" clip-rule="evenodd" d="M11.8958 45L7 40.1923L8.37083 38.8462L11.8958 42.3077L19.3375 35L20.7083 36.3462L11.8958 45Z" fill="#42C5FF"/>
</svg>
