<svg width="45" height="57" viewBox="0 0 45 57" fill="none" xmlns="http://www.w3.org/2000/svg">
<path d="M28.5 2V13.7778C28.5 14.5587 28.8102 15.3076 29.3624 15.8598C29.9146 16.412 30.6635 16.7222 31.4444 16.7222H43.2222" stroke="#10C35B" stroke-width="3.33333" stroke-linecap="round" stroke-linejoin="round"/>
<path d="M37.3333 55H7.88889C6.32706 55 4.8292 54.3796 3.72482 53.2752C2.62043 52.1708 2 50.6729 2 49.1111V7.88889C2 6.32706 2.62043 4.8292 3.72482 3.72482C4.8292 2.62043 6.32706 2 7.88889 2H28.5L43.2222 16.7222V49.1111C43.2222 50.6729 42.6018 52.1708 41.4974 53.2752C40.393 54.3796 38.8952 55 37.3333 55Z" stroke="#10C35B" stroke-width="3.33333" stroke-linecap="round" stroke-linejoin="round"/>
<path d="M19.668 34.3889H22.6124V46.1667H25.5569" stroke="#10C35B" stroke-width="3.33333" stroke-linecap="round" stroke-linejoin="round"/>
<path d="M22.6113 25.5556H22.6395" stroke="#10C35B" stroke-width="3.33333" stroke-linecap="round" stroke-linejoin="round"/>
</svg>
