<svg width="42" height="55" viewBox="0 0 42 55" fill="none" xmlns="http://www.w3.org/2000/svg">
<path d="M6.875 29.2188C6.875 28.7629 7.05608 28.3257 7.37841 28.0034C7.70074 27.6811 8.13791 27.5 8.59375 27.5C9.04959 27.5 9.48676 27.6811 9.80909 28.0034C10.1314 28.3257 10.3125 28.7629 10.3125 29.2188C10.3125 29.6746 10.1314 30.1118 9.80909 30.4341C9.48676 30.7564 9.04959 30.9375 8.59375 30.9375C8.13791 30.9375 7.70074 30.7564 7.37841 30.4341C7.05608 30.1118 6.875 29.6746 6.875 29.2188ZM8.59375 34.375C8.13791 34.375 7.70074 34.5561 7.37841 34.8784C7.05608 35.2007 6.875 35.6379 6.875 36.0938C6.875 36.5496 7.05608 36.9868 7.37841 37.3091C7.70074 37.6314 8.13791 37.8125 8.59375 37.8125C9.04959 37.8125 9.48676 37.6314 9.80909 37.3091C10.1314 36.9868 10.3125 36.5496 10.3125 36.0938C10.3125 35.6379 10.1314 35.2007 9.80909 34.8784C9.48676 34.5561 9.04959 34.375 8.59375 34.375ZM6.875 42.9688C6.875 42.5129 7.05608 42.0757 7.37841 41.7534C7.70074 41.4311 8.13791 41.25 8.59375 41.25C9.04959 41.25 9.48676 41.4311 9.80909 41.7534C10.1314 42.0757 10.3125 42.5129 10.3125 42.9688C10.3125 43.4246 10.1314 43.8618 9.80909 44.1841C9.48676 44.5064 9.04959 44.6875 8.59375 44.6875C8.13791 44.6875 7.70074 44.5064 7.37841 44.1841C7.05608 43.8618 6.875 43.4246 6.875 42.9688ZM15.4688 27.5C15.0129 27.5 14.5757 27.6811 14.2534 28.0034C13.9311 28.3257 13.75 28.7629 13.75 29.2188C13.75 29.6746 13.9311 30.1118 14.2534 30.4341C14.5757 30.7564 15.0129 30.9375 15.4688 30.9375H32.6563C33.1121 30.9375 33.5493 30.7564 33.8716 30.4341C34.1939 30.1118 34.375 29.6746 34.375 29.2188C34.375 28.7629 34.1939 28.3257 33.8716 28.0034C33.5493 27.6811 33.1121 27.5 32.6563 27.5H15.4688ZM13.75 36.0938C13.75 35.6379 13.9311 35.2007 14.2534 34.8784C14.5757 34.5561 15.0129 34.375 15.4688 34.375H32.6563C33.1121 34.375 33.5493 34.5561 33.8716 34.8784C34.1939 35.2007 34.375 35.6379 34.375 36.0938C34.375 36.5496 34.1939 36.9868 33.8716 37.3091C33.5493 37.6314 33.1121 37.8125 32.6563 37.8125H15.4688C15.0129 37.8125 14.5757 37.6314 14.2534 37.3091C13.9311 36.9868 13.75 36.5496 13.75 36.0938ZM15.4688 41.25C15.0129 41.25 14.5757 41.4311 14.2534 41.7534C13.9311 42.0757 13.75 42.5129 13.75 42.9688C13.75 43.4246 13.9311 43.8618 14.2534 44.1841C14.5757 44.5064 15.0129 44.6875 15.4688 44.6875H32.6563C33.1121 44.6875 33.5493 44.5064 33.8716 44.1841C34.1939 43.8618 34.375 43.4246 34.375 42.9688C34.375 42.5129 34.1939 42.0757 33.8716 41.7534C33.5493 41.4311 33.1121 41.25 32.6563 41.25H15.4688ZM6.875 0C5.05164 0 3.30295 0.724328 2.01364 2.01364C0.724328 3.30295 0 5.05164 0 6.875V48.125C0 49.9484 0.724328 51.697 2.01364 52.9864C3.30295 54.2757 5.05164 55 6.875 55H34.375C36.1984 55 37.947 54.2757 39.2364 52.9864C40.5257 51.697 41.25 49.9484 41.25 48.125V18.6106C41.2488 17.2436 40.7048 15.9329 39.7375 14.9669L26.2831 1.50906C25.3165 0.543062 24.0059 0.00029178 22.6394 0H6.875ZM3.4375 6.875C3.4375 5.96332 3.79966 5.08898 4.44432 4.44432C5.08898 3.79966 5.96332 3.4375 6.875 3.4375H20.625V15.4688C20.625 16.8363 21.1682 18.1478 22.1352 19.1148C23.1022 20.0818 24.4137 20.625 25.7813 20.625H37.8125V48.125C37.8125 49.0367 37.4503 49.911 36.8057 50.5557C36.161 51.2003 35.2867 51.5625 34.375 51.5625H6.875C5.96332 51.5625 5.08898 51.2003 4.44432 50.5557C3.79966 49.911 3.4375 49.0367 3.4375 48.125V6.875ZM37.1009 17.1875H25.7813C25.3254 17.1875 24.8882 17.0064 24.5659 16.6841C24.2436 16.3618 24.0625 15.9246 24.0625 15.4688V4.14906L37.1009 17.1875Z" fill="#10C35B"/>
</svg>
