<svg width="24" height="24" viewBox="0 0 24 24" fill="none" xmlns="http://www.w3.org/2000/svg">
<path fill-rule="evenodd" clip-rule="evenodd" d="M18.319 14.4331C19.566 12.8255 20.1536 10.8031 19.9625 8.77757C19.7713 6.752 18.8157 4.87533 17.2899 3.52936C15.7642 2.18339 13.783 1.46922 11.7494 1.53215C9.71581 1.59508 7.78257 2.43037 6.34298 3.8681C4.90213 5.30683 4.06411 7.24082 3.99968 9.27597C3.93524 11.3111 4.64926 13.2942 5.99621 14.8212C7.34316 16.3482 9.22168 17.3041 11.249 17.4942C13.2762 17.6842 15.2997 17.0941 16.907 15.8441L16.95 15.8891L21.192 20.1321C21.2849 20.225 21.3952 20.2987 21.5166 20.349C21.638 20.3993 21.7681 20.4252 21.8995 20.4252C22.0309 20.4252 22.161 20.3993 22.2824 20.349C22.4038 20.2987 22.5141 20.225 22.607 20.1321C22.6999 20.0392 22.7736 19.9289 22.8239 19.8075C22.8742 19.6861 22.9 19.556 22.9 19.4246C22.9 19.2932 22.8742 19.1631 22.8239 19.0417C22.7736 18.9203 22.6999 18.81 22.607 18.7171L18.364 14.4751C18.3494 14.4607 18.3344 14.4467 18.319 14.4331ZM16.243 5.2831C16.8076 5.83858 17.2566 6.50035 17.5642 7.23024C17.8717 7.96013 18.0318 8.74369 18.035 9.53572C18.0382 10.3278 17.8846 11.1126 17.583 11.845C17.2814 12.5773 16.8377 13.2427 16.2777 13.8028C15.7176 14.3629 15.0522 14.8065 14.3198 15.1081C13.5875 15.4097 12.8026 15.5633 12.0106 15.5601C11.2186 15.5569 10.435 15.3969 9.70511 15.0893C8.97523 14.7817 8.31346 14.3327 7.75798 13.7681C6.6479 12.6398 6.02863 11.1185 6.03508 9.53572C6.04152 7.9529 6.67316 6.43675 7.79239 5.31751C8.91162 4.19828 10.4278 3.56665 12.0106 3.5602C13.5934 3.55376 15.1147 4.17302 16.243 5.2831Z" fill="#CE1E2E"/>
</svg>
