<svg width="20" height="20" xmlns="http://www.w3.org/2000/svg" viewBox="0 0 18.9 18.9"><defs><style>.cls-1{fill:#10c35b;fill-rule:evenodd;}</style></defs><title>search</title><g id="Слой_2" data-name="Слой 2"><g id="Слой_1-2" data-name="Слой 1"><path class="cls-1" d="M14.32,12.9a8,8,0,1,0-1.41,1.42l0,0L17.2,18.6a.87.87,0,0,0,.32.22,1,1,0,0,0,.38.08,1,1,0,0,0,.39-.08.87.87,0,0,0,.32-.22,1,1,0,0,0,.22-.32,1,1,0,0,0,.07-.38,1,1,0,0,0-.07-.39,1,1,0,0,0-.22-.32L14.37,13ZM12.25,3.75a6.17,6.17,0,0,1,1.32,2A5.93,5.93,0,0,1,14,8a6.13,6.13,0,0,1-.45,2.31,6,6,0,0,1-1.31,1.95,5.92,5.92,0,0,1-2,1.31A6.05,6.05,0,0,1,8,14a5.88,5.88,0,0,1-2.3-.47,6.17,6.17,0,0,1-1.95-1.32,6,6,0,0,1,8.49-8.49Z"/></g></g></svg>