<svg width="18" height="18" viewBox="0 0 18 18" fill="none" xmlns="http://www.w3.org/2000/svg">
<path d="M9 7.875H10.125V9H9V7.875Z" fill="#10C35B"/>
<path d="M11.25 7.875H12.375V9H11.25V7.875Z" fill="#10C35B"/>
<path d="M13.5 7.875H14.625V9H13.5V7.875Z" fill="#10C35B"/>
<path d="M9 10.125H10.125V11.25H9V10.125Z" fill="#10C35B"/>
<path d="M11.25 10.125H12.375V11.25H11.25V10.125Z" fill="#10C35B"/>
<path d="M13.5 10.125H14.625V11.25H13.5V10.125Z" fill="#10C35B"/>
<path d="M9 12.375H10.125V13.5H9V12.375Z" fill="#10C35B"/>
<path d="M11.25 12.375H12.375V13.5H11.25V12.375Z" fill="#10C35B"/>
<path d="M13.5 12.375H14.625V13.5H13.5V12.375Z" fill="#10C35B"/>
<path d="M9 5.625H14.625V6.75H9V5.625Z" fill="#10C35B"/>
<path d="M15.75 3.375H7.875V2.8125C7.8747 2.51422 7.75608 2.22825 7.54517 2.01733C7.33425 1.80642 7.04828 1.6878 6.75 1.6875H4.5C4.20172 1.6878 3.91575 1.80642 3.70483 2.01733C3.49392 2.22825 3.3753 2.51422 3.375 2.8125V3.375H2.25C1.95172 3.3753 1.66575 3.49392 1.45483 3.70483C1.24392 3.91575 1.1253 4.20172 1.125 4.5V14.625C1.1253 14.9233 1.24392 15.2093 1.45483 15.4202C1.66575 15.6311 1.95172 15.7497 2.25 15.75H15.75C16.0483 15.7497 16.3343 15.6311 16.5452 15.4202C16.7561 15.2093 16.8747 14.9233 16.875 14.625V4.5C16.8747 4.20172 16.7561 3.91575 16.5452 3.70483C16.3343 3.49392 16.0483 3.3753 15.75 3.375ZM4.5 2.8125H6.75V12.375H4.5V2.8125ZM15.75 14.625H2.25V4.5H3.375V12.375C3.3753 12.6733 3.49392 12.9593 3.70483 13.1702C3.91575 13.3811 4.20172 13.4997 4.5 13.5H6.75C7.04828 13.4997 7.33425 13.3811 7.54517 13.1702C7.75608 12.9593 7.8747 12.6733 7.875 12.375V4.5H15.75V14.625Z" fill="#10C35B"/>
</svg>
