<svg width="17" height="16" viewBox="0 0 17 16" fill="none" xmlns="http://www.w3.org/2000/svg">
<path d="M14.4375 15.2188H14.3366C2.66942 14.5478 1.01285 4.70344 0.78129 1.69906C0.762632 1.46547 0.790249 1.23049 0.86256 1.00759C0.93487 0.784686 1.05045 0.578243 1.20268 0.400087C1.35492 0.221931 1.54081 0.0755647 1.7497 -0.0306266C1.9586 -0.136818 2.1864 -0.200746 2.42004 -0.218749H5.6916C5.92943 -0.21898 6.16185 -0.147791 6.35876 -0.0144034C6.55566 0.118984 6.70798 0.308423 6.79598 0.529376L7.69848 2.75C7.78537 2.96586 7.80694 3.20248 7.76049 3.43049C7.71405 3.6585 7.60164 3.86784 7.43723 4.0325L6.17254 5.30906C6.37009 6.43169 6.90771 7.46655 7.71267 8.27363C8.51762 9.08071 9.55106 9.62105 10.6732 9.82156L11.9616 8.545C12.1287 8.38241 12.3401 8.27262 12.5692 8.22933C12.7983 8.18604 13.0351 8.21116 13.25 8.30156L15.4885 9.19813C15.7061 9.2889 15.8918 9.44241 16.0218 9.63909C16.1519 9.83576 16.2205 10.0667 16.2188 10.3025V13.4375C16.2188 13.9099 16.0311 14.363 15.6971 14.697C15.363 15.0311 14.91 15.2188 14.4375 15.2188ZM2.56254 0.968751C2.40507 0.968751 2.25405 1.03131 2.1427 1.14266C2.03135 1.25401 1.96879 1.40503 1.96879 1.5625V1.61C2.24192 5.125 3.99348 13.4375 14.4019 14.0312C14.4799 14.0361 14.5581 14.0254 14.632 14C14.7059 13.9745 14.774 13.9347 14.8325 13.8829C14.891 13.831 14.9386 13.7681 14.9727 13.6978C15.0069 13.6275 15.0268 13.5511 15.0313 13.4731V10.3025L12.7929 9.40594L11.0888 11.0981L10.8038 11.0625C5.63816 10.4153 4.93754 5.24969 4.93754 5.19625L4.90192 4.91125L6.58817 3.20719L5.69754 0.968751H2.56254Z" fill="#10C35B"/>
</svg>
