<svg width="30" height="30" viewBox="0 0 30 30" fill="none" xmlns="http://www.w3.org/2000/svg">
<path fill-rule="evenodd" clip-rule="evenodd" d="M8.73455 6.11319C12.9041 5.78698 17.0928 5.78698 21.2624 6.11319L24.0633 6.33231C25.6234 6.45437 26.8997 7.62361 27.1575 9.16708C27.8028 13.0289 27.8028 16.9711 27.1575 20.833C26.8997 22.3765 25.6234 23.5457 24.0633 23.6678L21.2624 23.8869C17.0928 24.2131 12.9041 24.2131 8.73455 23.8869L5.93367 23.6678C4.37358 23.5457 3.0973 22.3765 2.83941 20.833C2.19415 16.9711 2.19415 13.0289 2.83941 9.16708C3.0973 7.62361 4.37358 6.45437 5.93367 6.33231L8.73455 6.11319ZM12.4984 18.0877V11.9124C12.4984 11.6209 12.8164 11.4408 13.0664 11.5908L18.2125 14.6785C18.4553 14.8241 18.4553 15.1759 18.2125 15.3216L13.0664 18.4093C12.8164 18.5592 12.4984 18.3792 12.4984 18.0877Z" fill="white"/>
</svg>
