<svg width="52" height="51" viewBox="0 0 52 51" fill="none" xmlns="http://www.w3.org/2000/svg">
<path d="M31.729 32.1461C31.4567 31.0753 30.8424 30.1269 29.9825 29.4497C29.1226 28.7725 28.0659 28.405 26.9784 28.4049L4.90516 28.4024L4.53727 28.4148C3.30303 28.5098 2.14967 29.0756 1.30826 29.9988C0.46686 30.922 -0.000436116 32.1344 3.05414e-07 33.3932V37.1344L0.0122635 37.708C0.404676 45.9736 9.26584 48.3581 15.9418 48.3581C18.0387 48.3581 20.3515 48.1236 22.549 47.545L20.8788 45.844C20.446 45.404 20.1107 44.8751 19.8953 44.2926C18.8447 44.4685 17.7836 44.5727 16.7192 44.6044L15.9418 44.6168L15.1643 44.6044C12.0667 44.5071 9.18 43.8362 7.15417 42.7263C4.78253 41.4293 3.67887 39.651 3.67887 37.1344V33.3907L3.70339 33.1388C3.75231 32.9001 3.86816 32.6809 4.03695 32.5077C4.20755 32.3366 4.42293 32.2188 4.65745 32.1685L4.90516 32.1436L31.729 32.1461Z" fill="#AD5DD2"/>
<path d="M31.3441 47.6672C31.669 48.0218 31.8459 48.4908 31.8375 48.9754C31.8291 49.46 31.636 49.9224 31.299 50.2651C30.962 50.6079 30.5073 50.8042 30.0308 50.8127C29.5542 50.8213 29.093 50.6414 28.7444 50.311L22.6129 44.0806C22.442 43.9069 22.3064 43.7006 22.2139 43.4736C22.1213 43.2466 22.0737 43.0032 22.0737 42.7575C22.0737 42.5117 22.1213 42.2684 22.2139 42.0413C22.3064 41.8143 22.442 41.608 22.6129 41.4343L28.7444 35.1964C28.9128 35.0127 29.1158 34.8653 29.3415 34.763C29.5671 34.6608 29.8107 34.6058 30.0577 34.6014C30.3046 34.5969 30.55 34.6431 30.779 34.7372C31.008 34.8313 31.2161 34.9713 31.3908 35.149C31.5654 35.3266 31.7031 35.5382 31.7957 35.7711C31.8882 36.004 31.9336 36.2535 31.9292 36.5047C31.9249 36.7559 31.8708 37.0036 31.7703 37.233C31.6698 37.4625 31.5248 37.669 31.3441 37.8402L28.3519 40.8831H45.2208L42.2311 37.8402C42.0555 37.6676 41.9154 37.4611 41.8191 37.2329C41.7229 37.0046 41.6722 36.7591 41.6702 36.5107C41.6682 36.2623 41.7149 36.016 41.8075 35.7862C41.9001 35.5564 42.0367 35.3476 42.2095 35.172C42.3823 34.9965 42.5878 34.8577 42.8139 34.7637C43.04 34.6698 43.2822 34.6225 43.5264 34.6248C43.7707 34.6271 44.012 34.6788 44.2364 34.777C44.4608 34.8751 44.6637 35.0177 44.8333 35.1964L50.9647 41.4368C51.3092 41.7875 51.5027 42.263 51.5027 42.7587C51.5027 43.2544 51.3092 43.7299 50.9647 44.0806L44.8333 50.3135C44.6635 50.4921 44.4605 50.6345 44.236 50.7324C44.0115 50.8303 43.7701 50.8818 43.5259 50.8838C43.2817 50.8859 43.0395 50.8384 42.8135 50.7443C42.5874 50.6501 42.3821 50.5111 42.2095 50.3354C42.0369 50.1597 41.9004 49.9508 41.808 49.7208C41.7156 49.4909 41.6692 49.2445 41.6714 48.9962C41.6737 48.7478 41.7245 48.5024 41.821 48.2742C41.9175 48.046 42.0578 47.8397 42.2335 47.6672L45.2257 44.6243H28.3519L31.3441 47.6672Z" fill="#AD5DD2"/>
<path d="M49.0515 35.8874V35.9622L46.5694 33.4331C46.083 32.9363 45.4855 32.5667 44.8281 32.3556C44.6889 32.2609 44.5319 32.1964 44.367 32.1661L44.1463 32.1461H34.2109C34.0081 30.9252 33.5062 29.7758 32.7516 28.804L32.423 28.4049H44.1463C46.7313 28.4049 48.8503 30.4401 49.0367 33.0191L49.0515 33.3932V35.8874Z" fill="#AD5DD2"/>
<path d="M26.9785 12.1929C26.9785 9.21623 25.8157 6.36145 23.7459 4.2566C21.6762 2.15176 18.869 0.969269 15.9419 0.969269C13.0148 0.969269 10.2076 2.15176 8.13782 4.2566C6.06805 6.36145 4.90527 9.21623 4.90527 12.1929C4.90527 15.1696 6.06805 18.0244 8.13782 20.1293C10.2076 22.2341 13.0148 23.4166 15.9419 23.4166C18.869 23.4166 21.6762 22.2341 23.7459 20.1293C25.8157 18.0244 26.9785 15.1696 26.9785 12.1929ZM8.58414 12.1929C8.58414 8.06761 11.8853 4.71049 15.9419 4.71049C19.9984 4.71049 23.2996 8.06761 23.2996 12.1929C23.2996 16.3183 19.9984 19.6754 15.9419 19.6754C11.8853 19.6754 8.58414 16.3183 8.58414 12.1929Z" fill="#AD5DD2"/>
<path d="M46.599 14.6871C46.599 12.3719 45.6946 10.1515 44.0848 8.5144C42.4749 6.8773 40.2916 5.95758 38.0149 5.95758C35.7383 5.95758 33.5549 6.8773 31.9451 8.5144C30.3353 10.1515 29.4309 12.3719 29.4309 14.6871C29.4309 17.0023 30.3353 19.2227 31.9451 20.8598C33.5549 22.4969 35.7383 23.4166 38.0149 23.4166C40.2916 23.4166 42.4749 22.4969 44.0848 20.8598C45.6946 19.2227 46.599 17.0023 46.599 14.6871ZM33.1098 14.6871C33.1098 11.9361 35.3097 9.6988 38.0149 9.6988C40.7201 9.6988 42.9201 11.9361 42.9201 14.6871C42.9201 17.4381 40.7201 19.6754 38.0149 19.6754C35.3097 19.6754 33.1098 17.4381 33.1098 14.6871Z" fill="#AD5DD2"/>
</svg>
