<svg width="54" height="50" viewBox="0 0 54 50" fill="none" xmlns="http://www.w3.org/2000/svg">
<path d="M29.0325 27.2702C30.8105 27.2702 32.5157 27.9885 33.7729 29.2671C35.0301 30.5456 35.7365 32.2797 35.7365 34.0878L35.732 37.4898C36.1923 45.8367 29.8705 50 18.1453 50C6.46036 50 0 45.8913 0 37.6079V34.0878C0 32.2797 0.706306 30.5456 1.96354 29.2671C3.22077 27.9885 4.92594 27.2702 6.70394 27.2702H29.0325ZM46.9097 27.2702C48.6877 27.2702 50.3928 27.9885 51.6501 29.2671C52.9073 30.5456 53.6136 32.2797 53.6136 34.0878V36.4808C54.0159 43.9687 48.4292 47.7229 38.2191 47.7229C36.8337 47.7229 35.5309 47.6548 34.313 47.5184C35.6019 46.3228 36.5904 44.8305 37.1957 43.1665L38.2191 43.1779C46.1946 43.1779 49.3812 41.0349 49.1466 36.6058V34.0878C49.1466 33.4851 48.9111 32.9071 48.492 32.4809C48.073 32.0547 47.5046 31.8153 46.9119 31.8153H37.6895C37.2412 30.0547 36.2837 28.4714 34.9409 27.2702H46.9119H46.9097ZM29.0325 31.8153H6.70394C6.11127 31.8153 5.54288 32.0547 5.1238 32.4809C4.70473 32.9071 4.46929 33.4851 4.46929 34.0878V37.6102C4.46929 42.8166 8.61679 45.455 18.1453 45.455C27.6381 45.455 31.5532 42.8756 31.2672 37.6148V34.0878C31.2672 33.4851 31.0317 32.9071 30.6126 32.4809C30.1936 32.0547 29.6252 31.8153 29.0325 31.8153ZM17.8772 0C20.8411 0 23.6836 1.19737 25.7794 3.32869C27.8752 5.46002 29.0526 8.35072 29.0526 11.3649C29.0526 14.379 27.8752 17.2697 25.7794 19.4011C23.6836 21.5324 20.8411 22.7297 17.8772 22.7297C14.9132 22.7297 12.0707 21.5324 9.97492 19.4011C7.87911 17.2697 6.7017 14.379 6.7017 11.3649C6.7017 8.35072 7.87911 5.46002 9.97492 3.32869C12.0707 1.19737 14.9132 0 17.8772 0ZM40.2236 4.54504C42.5943 4.54504 44.8678 5.50274 46.5441 7.20746C48.2205 8.91218 49.1622 11.2243 49.1622 13.6351C49.1622 16.046 48.2205 18.3581 46.5441 20.0628C44.8678 21.7675 42.5943 22.7252 40.2236 22.7252C37.853 22.7252 35.5794 21.7675 33.9031 20.0628C32.2268 18.3581 31.285 16.046 31.285 13.6351C31.285 11.2243 32.2268 8.91218 33.9031 7.20746C35.5794 5.50274 37.853 4.54504 40.2236 4.54504ZM17.8772 4.54504C16.9965 4.54504 16.1245 4.72144 15.3108 5.06417C14.4972 5.4069 13.7579 5.90924 13.1352 6.54252C12.5125 7.1758 12.0185 7.92762 11.6815 8.75504C11.3445 9.58246 11.171 10.4693 11.171 11.3649C11.171 12.2605 11.3445 13.1473 11.6815 13.9747C12.0185 14.8021 12.5125 15.5539 13.1352 16.1872C13.7579 16.8205 14.4972 17.3229 15.3108 17.6656C16.1245 18.0083 16.9965 18.1847 17.8772 18.1847C19.6558 18.1847 21.3615 17.4662 22.6191 16.1872C23.8768 14.9083 24.5833 13.1736 24.5833 11.3649C24.5833 9.55614 23.8768 7.82149 22.6191 6.54252C21.3615 5.26356 19.6558 4.54504 17.8772 4.54504ZM40.2236 9.09008C39.0383 9.09008 37.9015 9.56893 37.0634 10.4213C36.2252 11.2737 35.7543 12.4297 35.7543 13.6351C35.7543 14.8405 36.2252 15.9966 37.0634 16.849C37.9015 17.7013 39.0383 18.1802 40.2236 18.1802C41.4089 18.1802 42.5457 17.7013 43.3839 16.849C44.222 15.9966 44.6929 14.8405 44.6929 13.6351C44.6929 12.4297 44.222 11.2737 43.3839 10.4213C42.5457 9.56893 41.4089 9.09008 40.2236 9.09008Z" fill="#FCC125"/>
</svg>
