<svg width="25" height="21" viewBox="0 0 25 21" fill="none" xmlns="http://www.w3.org/2000/svg">
<path d="M2.835 19.7648H2.5C1.83696 19.7648 1.20107 19.5045 0.732233 19.0412C0.263392 18.5779 0 17.9495 0 17.2942V2.4706C0 1.81536 0.263392 1.18695 0.732233 0.723622C1.20107 0.260295 1.83696 0 2.5 0H22.5C23.163 0 23.7989 0.260295 24.2678 0.723622C24.7366 1.18695 25 1.81536 25 2.4706V17.2942C25 17.9495 24.7366 18.5779 24.2678 19.0412C23.7989 19.5045 23.163 19.7648 22.5 19.7648H22.165C21.9456 20.1404 21.63 20.4522 21.2499 20.669C20.8699 20.8859 20.4388 21 20 21C19.5612 21 19.1301 20.8859 18.7501 20.669C18.37 20.4522 18.0544 20.1404 17.835 19.7648H7.165C6.94557 20.1404 6.62998 20.4522 6.24995 20.669C5.86991 20.8859 5.43882 21 5 21C4.56118 21 4.13009 20.8859 3.75005 20.669C3.37002 20.4522 3.05443 20.1404 2.835 19.7648ZM2.5 2.4706V17.2942H22.5V2.4706H2.5ZM5 9.8824H20V14.8236H5V9.8824ZM5 4.9412H11.25V7.4118H5V4.9412ZM10 11.1177V12.353H15V11.1177H10ZM15 7.4118C14.6685 7.4118 14.3505 7.28166 14.1161 7.04999C13.8817 6.81833 13.75 6.50412 13.75 6.1765C13.75 5.84888 13.8817 5.53468 14.1161 5.30301C14.3505 5.07135 14.6685 4.9412 15 4.9412C15.3315 4.9412 15.6495 5.07135 15.8839 5.30301C16.1183 5.53468 16.25 5.84888 16.25 6.1765C16.25 6.50412 16.1183 6.81833 15.8839 7.04999C15.6495 7.28166 15.3315 7.4118 15 7.4118ZM18.75 7.4118C18.4185 7.4118 18.1005 7.28166 17.8661 7.04999C17.6317 6.81833 17.5 6.50412 17.5 6.1765C17.5 5.84888 17.6317 5.53468 17.8661 5.30301C18.1005 5.07135 18.4185 4.9412 18.75 4.9412C19.0815 4.9412 19.3995 5.07135 19.6339 5.30301C19.8683 5.53468 20 5.84888 20 6.1765C20 6.50412 19.8683 6.81833 19.6339 7.04999C19.3995 7.28166 19.0815 7.4118 18.75 7.4118Z" fill="white"/>
</svg>
