<svg xmlns="http://www.w3.org/2000/svg" viewBox="0 0 44 44"><defs><style>.cls-1,.cls-2{fill:#10c35b;}.cls-1{opacity:0.26;}</style></defs><title>close-svg</title><g id="Слой_2" data-name="Слой 2"><g id="Слой_1-2" data-name="Слой 1"><circle class="cls-1" cx="22" cy="22" r="22"/><path class="cls-2" d="M23.64,22l5-5A1.17,1.17,0,0,0,27,15.34l-5,5-5-5a1.13,1.13,0,0,0-.82-.34,1.17,1.17,0,0,0-.83,2l5,5-5,5a1.22,1.22,0,0,0-.26.38,1.2,1.2,0,0,0-.09.45,1.13,1.13,0,0,0,.09.45,1.25,1.25,0,0,0,.64.64,1.13,1.13,0,0,0,.45.09,1.2,1.2,0,0,0,.45-.09,1.08,1.08,0,0,0,.37-.26l5-5,5,5a1.22,1.22,0,0,0,.38.26,1.2,1.2,0,0,0,.45.09,1.13,1.13,0,0,0,.45-.09,1.25,1.25,0,0,0,.64-.64,1.13,1.13,0,0,0,.09-.45,1.2,1.2,0,0,0-.09-.45,1.22,1.22,0,0,0-.26-.38Z"/></g></g></svg>