<svg width="34" height="34" viewBox="0 0 34 34" fill="none" xmlns="http://www.w3.org/2000/svg">
<path d="M20.1154 4.07288C18.3776 4.07288 16.7111 4.76318 15.4823 5.99194C14.2536 7.22069 13.5633 8.88724 13.5633 10.625V14.2729H10.057C9.88099 14.2729 9.73828 14.4156 9.73828 14.5916V19.4083C9.73828 19.5843 9.88099 19.727 10.057 19.727H13.5633V29.6083C13.5633 29.7843 13.706 29.927 13.882 29.927H18.6987C18.8747 29.927 19.0174 29.7843 19.0174 29.6083V19.727H22.5548C22.701 19.727 22.8285 19.6275 22.864 19.4856L24.0682 14.6689C24.1184 14.4678 23.9663 14.2729 23.7589 14.2729H19.0174V10.625C19.0174 10.3338 19.1331 10.0545 19.339 9.84862C19.5449 9.64272 19.8242 9.52704 20.1154 9.52704H23.7987C23.9747 9.52704 24.1174 9.38433 24.1174 9.20829V4.39163C24.1174 4.21559 23.9747 4.07288 23.7987 4.07288H20.1154Z" fill="white"/>
</svg>
