<svg width="55" height="54" viewBox="0 0 55 54" fill="none" xmlns="http://www.w3.org/2000/svg">
<path d="M6.71254 17.9223C6.51581 17.726 6.24279 17.6133 5.96448 17.6133C5.68616 17.6133 5.41325 17.7261 5.21631 17.9223C5.01937 18.1185 4.90625 18.3906 4.90625 18.668C4.90625 18.9454 5.01937 19.2175 5.21631 19.4135C5.41314 19.6098 5.68616 19.7227 5.96448 19.7227C6.24279 19.7227 6.51581 19.6098 6.71254 19.4135C6.90947 19.2175 7.0227 18.9454 7.0227 18.668C7.0227 18.3906 6.90947 18.1185 6.71254 17.9223Z" fill="white"/>
<path d="M46.6004 0H25.189C24.6046 0 24.1307 0.472289 24.1307 1.05469C24.1307 1.63709 24.6046 2.10938 25.189 2.10938H46.6004C47.1839 2.10938 47.6586 2.58251 47.6586 3.16406V50.8359C47.6586 51.4175 47.1839 51.8906 46.6004 51.8906H8.08093C7.49742 51.8906 7.0227 51.4175 7.0227 50.8359V22.6054C7.0227 22.023 6.54883 21.5507 5.96448 21.5507C5.38012 21.5507 4.90625 22.023 4.90625 22.6054V50.8359C4.90625 52.5806 6.33041 54 8.08093 54H46.6004C48.3509 54 49.7751 52.5806 49.7751 50.8359V3.16406C49.7751 1.4194 48.3509 0 46.6004 0Z" fill="white"/>
<path d="M27.3405 4.21875C26.6205 4.21875 25.8969 4.27359 25.1898 4.38159C24.6121 4.46998 24.2156 5.00818 24.3041 5.58394C24.3927 6.15969 24.9331 6.55436 25.5105 6.46661C26.1119 6.37464 26.7276 6.32813 27.3405 6.32813C33.9342 6.32813 39.2986 11.6745 39.2986 18.2462C39.2986 21.1645 38.2401 23.8406 36.4865 25.9148C35.7105 24.5849 34.6505 23.4377 33.364 22.5478C32.6132 22.0285 31.8065 21.614 30.9621 21.3072C31.9259 20.3682 32.5258 19.0597 32.5258 17.6135V16.5852C32.5258 13.7354 30.1997 11.4171 27.3405 11.4171C24.4813 11.4171 22.1552 13.7354 22.1552 16.5852V17.6135C22.1552 19.0597 22.755 20.3682 23.7189 21.3072C22.8746 21.614 22.0679 22.0285 21.317 22.5478C20.0244 23.442 18.9602 24.5956 18.1833 25.9336C16.847 24.351 15.913 22.4045 15.5476 20.233C15.451 19.6587 14.9049 19.2713 14.329 19.3673C13.7526 19.4636 13.3637 20.0074 13.4603 20.5819C14.0044 23.8156 15.6888 26.7755 18.2033 28.9162C20.7463 31.0813 23.9913 32.2738 27.3404 32.2738C35.1011 32.2738 41.4149 25.9811 41.4149 18.2463C41.4149 10.5115 35.1012 4.21875 27.3405 4.21875ZM24.2717 16.5851C24.2717 14.8985 25.6484 13.5264 27.3405 13.5264C29.0326 13.5264 30.4094 14.8985 30.4094 16.5851V17.6134C30.4094 19.2998 29.0326 20.672 27.3405 20.672C25.6484 20.672 24.2717 19.2998 24.2717 17.6134V16.5851ZM27.3405 30.1643C24.4755 30.1643 21.8267 29.1672 19.7537 27.4767C21.1747 24.6025 24.0796 22.7814 27.3405 22.7814C30.5947 22.7814 33.4941 24.595 34.9183 27.4588C32.854 29.1485 30.214 30.1643 27.3405 30.1643Z" fill="white"/>
<path d="M37.1141 41.9768H22.0873C21.5029 41.9768 21.0291 42.4491 21.0291 43.0315C21.0291 43.6139 21.5029 44.0862 22.0873 44.0862H37.1141C37.6986 44.0862 38.1723 43.6139 38.1723 43.0315C38.1723 42.4491 37.6985 41.9768 37.1141 41.9768Z" fill="white"/>
<path d="M18.3149 36.3793C18.1181 36.1831 17.8451 36.0703 17.5668 36.0703C17.2885 36.0703 17.0154 36.1832 16.8186 36.3793C16.6218 36.5755 16.5085 36.8476 16.5085 37.125C16.5085 37.4033 16.6219 37.6745 16.8186 37.8706C17.0154 38.0668 17.2885 38.1797 17.5668 38.1797C17.8451 38.1797 18.1181 38.0668 18.3149 37.8706C18.5128 37.6745 18.625 37.4024 18.625 37.125C18.625 36.8476 18.5128 36.5755 18.3149 36.3793Z" fill="white"/>
<path d="M18.3149 42.2856C18.1181 42.0893 17.8461 41.9766 17.5668 41.9766C17.2885 41.9766 17.0154 42.0894 16.8186 42.2856C16.6218 42.4818 16.5085 42.7539 16.5085 43.0312C16.5085 43.3096 16.6219 43.5807 16.8186 43.7768C17.0154 43.9731 17.2885 44.0859 17.5668 44.0859C17.8451 44.0859 18.1181 43.9731 18.3149 43.7768C18.5128 43.5807 18.625 43.3097 18.625 43.0312C18.625 42.7539 18.5128 42.4818 18.3149 42.2856Z" fill="white"/>
<path d="M37.1141 36.0706H22.0873C21.5029 36.0706 21.0291 36.5428 21.0291 37.1252C21.0291 37.7076 21.5029 38.1799 22.0873 38.1799H37.1141C37.6986 38.1799 38.1723 37.7076 38.1723 37.1252C38.1723 36.5428 37.6985 36.0706 37.1141 36.0706Z" fill="white"/>
<path d="M17.3537 6.0781C16.9402 5.66635 16.2704 5.66635 15.857 6.0781L12.4108 9.5128L11.2331 8.33903C10.8196 7.92728 10.1498 7.92728 9.73644 8.33903C9.3232 8.751 9.3232 9.41882 9.73644 9.83068L11.6624 11.7502C11.8691 11.9561 12.1398 12.0591 12.4107 12.0591C12.6816 12.0591 12.9523 11.9561 13.1591 11.7503L17.3537 7.56975C17.7669 7.15778 17.7669 6.48996 17.3537 6.0781Z" fill="white"/>
<path d="M13.5837 0C8.79894 0 4.90625 3.87967 4.90625 8.64844C4.90625 13.4172 8.79894 17.2969 13.5837 17.2969C18.3685 17.2969 22.2612 13.4172 22.2612 8.64844C22.2612 3.87967 18.3685 0 13.5837 0ZM13.5837 15.1875C9.96595 15.1875 7.0227 12.2541 7.0227 8.64844C7.0227 5.04278 9.96595 2.10938 13.5837 2.10938C17.2015 2.10938 20.1447 5.04278 20.1447 8.64844C20.1447 12.2541 17.2015 15.1875 13.5837 15.1875Z" fill="white"/>
</svg>
