<svg width="60" height="59" viewBox="0 0 60 59" fill="none" xmlns="http://www.w3.org/2000/svg">
<path d="M50.1203 10.39C50.1158 10.3855 50.1118 10.381 50.1077 10.376C50.1018 10.3697 50.096 10.363 50.0896 10.3567L49.7071 9.94077L42.1298 1.69656C41.2871 0.779633 40.1688 0.203011 38.9448 0.0445633C38.9435 0.0445633 38.9421 0.0445633 38.9408 0.0441131C38.9245 0.0423127 38.9083 0.0400619 38.8916 0.0382614C38.6838 0.0130539 38.4738 0 38.2624 0H17.2785C14.9228 0 13.006 1.90992 13.006 4.25782V6.32889H11.5458C9.45109 6.32889 7.74658 8.02769 7.74658 10.1163V53.2117C7.74658 56.4036 10.3517 59 13.5543 59H40.0974C42.1922 59 43.8967 57.3012 43.8967 55.2135V53.4089H47.195C49.5508 53.4089 51.4676 51.4985 51.4676 49.1511V13.888C51.4676 12.5916 50.9893 11.351 50.1203 10.39ZM48.3156 11.8381H40.4357C39.9787 11.8381 39.607 11.4676 39.607 11.0121V2.63103C39.9114 2.78768 40.1891 2.99744 40.4244 3.25357L47.7659 11.2403L48.3156 11.8381ZM47.1955 51.1042H17.2785C16.1978 51.1042 15.3184 50.2278 15.3184 49.1511V43.7891C15.3184 43.1526 14.8008 42.6367 14.1622 42.6367C13.524 42.6367 13.006 43.1526 13.006 43.7891V49.1511C13.006 51.499 14.9228 53.4089 17.2785 53.4089H41.5843V55.2135C41.5843 56.0305 40.9172 56.6953 40.0974 56.6953H13.5543C11.6271 56.6953 10.059 55.1324 10.059 53.2117V10.1163C10.059 9.29842 10.7261 8.63358 11.5458 8.63358H13.006V34.5703C13.006 35.2068 13.524 35.7227 14.1622 35.7227C14.8008 35.7227 15.3184 35.2068 15.3184 34.5703V4.25782C15.3184 3.1811 16.1978 2.30469 17.2785 2.30469H37.2945V11.0121C37.2945 12.7383 38.7037 14.1428 40.4357 14.1428H49.1552V49.1511C49.1552 50.2278 48.2758 51.1042 47.1955 51.1042Z" fill="white"/>
<path d="M21.5118 16.4196H33.8733C34.5115 16.4196 35.0295 15.9037 35.0295 15.2672C35.0295 14.6307 34.5115 14.1149 33.8733 14.1149H21.5118C20.8732 14.1149 20.3556 14.6307 20.3556 15.2672C20.3556 15.9037 20.8732 16.4196 21.5118 16.4196Z" fill="white"/>
<path d="M39.6386 23.6465H21.5118C20.8732 23.6465 20.3556 24.1623 20.3556 24.7988C20.3556 25.4353 20.8732 25.9512 21.5118 25.9512H39.6386C40.2772 25.9512 40.7948 25.4353 40.7948 24.7988C40.7948 24.1623 40.2772 23.6465 39.6386 23.6465Z" fill="white"/>
<path d="M39.6386 33.1781H21.5118C20.8732 33.1781 20.3556 33.694 20.3556 34.3304C20.3556 34.9669 20.8732 35.4828 21.5118 35.4828H39.6386C40.2772 35.4828 40.7948 34.9669 40.7948 34.3304C40.7948 33.694 40.2772 33.1781 39.6386 33.1781Z" fill="white"/>
<path d="M39.6386 42.7092H21.5118C20.8732 42.7092 20.3556 43.2251 20.3556 43.8616C20.3556 44.4981 20.8732 45.0139 21.5118 45.0139H39.6386C40.2772 45.0139 40.7948 44.4981 40.7948 43.8616C40.7948 43.2251 40.2772 42.7092 39.6386 42.7092Z" fill="white"/>
<path d="M14.1627 38.0287C13.5241 38.0287 13.0065 38.5463 13.0065 39.1824C13.0065 39.8189 13.5241 40.3347 14.1627 40.3347C14.8009 40.3347 15.3189 39.8189 15.3189 39.1824V39.1797C15.3189 38.5432 14.8009 38.0287 14.1627 38.0287Z" fill="white"/>
</svg>
