<svg width="59" height="59" viewBox="0 0 59 59" fill="none" xmlns="http://www.w3.org/2000/svg">
<g clip-path="url(#clip0)">
<path d="M3.03513 40.9927C3.50379 40.9927 3.88374 40.6077 3.88374 40.1326V2.05164C3.88374 1.86884 4.03049 1.72021 4.21085 1.72021H35.2736V10.3838C35.2736 11.5151 36.1818 12.4355 37.298 12.4355H45.8009V17.7252C45.8009 18.2003 46.1809 18.5853 46.6495 18.5853C47.1182 18.5853 47.4981 18.2003 47.4981 17.7252V11.5527C47.4981 11.3246 47.4087 11.1059 47.2495 10.9444L36.6999 0.251839C36.5408 0.0905977 36.3249 0 36.0998 0H4.21085C3.09465 0 2.18652 0.920312 2.18652 2.05164V40.1327C2.18652 40.6077 2.56647 40.9927 3.03513 40.9927ZM36.9709 10.3838V2.95922L44.6232 10.7152H37.2979C37.1176 10.7153 36.9709 10.5666 36.9709 10.3838Z" fill="white"/>
<path d="M46.6494 50.1781C46.1808 50.1781 45.8008 50.5631 45.8008 51.0382V56.9482C45.8008 57.131 45.6542 57.2797 45.4738 57.2797H4.21085C4.03049 57.2797 3.88374 57.131 3.88374 56.9482V43.798C3.88374 43.3228 3.50379 42.9379 3.03513 42.9379C2.56647 42.9379 2.18652 43.3228 2.18652 43.798V56.9482C2.18652 58.0795 3.09465 59 4.21085 59H45.4739C46.5901 59 47.4981 58.0796 47.4981 56.9482V51.0382C47.498 50.5631 47.1181 50.1781 46.6494 50.1781Z" fill="white"/>
<path d="M56.0249 31.0068C56.0249 25.0731 51.262 20.2456 45.4076 20.2456C39.5532 20.2456 34.7903 25.0731 34.7903 31.0068C34.7903 34.7314 36.6672 38.0197 39.5124 39.9522V47.8128C39.5124 48.3551 39.7791 48.8569 40.2257 49.1556C40.6724 49.4542 41.2327 49.5049 41.7244 49.2914L45.4076 47.6917L49.0909 49.2914C49.2921 49.3789 49.5048 49.422 49.7165 49.422C50.0221 49.422 50.3257 49.3321 50.5895 49.1557C51.0361 48.8571 51.3028 48.3552 51.3028 47.8129V39.9523C54.148 38.0197 56.0249 34.7314 56.0249 31.0068ZM49.6056 47.6434L46.0326 46.0915C45.6354 45.9189 45.1797 45.9189 44.7826 46.0915L41.2096 47.6434V40.8902C42.4979 41.4545 43.9172 41.768 45.4076 41.768C46.898 41.768 48.3173 41.4545 49.6056 40.8902V47.6434ZM45.4076 40.0478C40.4891 40.0478 36.4875 35.9921 36.4875 31.0068C36.4875 26.0215 40.4891 21.9658 45.4076 21.9658C50.3261 21.9658 54.3277 26.0215 54.3277 31.0068C54.3277 35.9921 50.3261 40.0478 45.4076 40.0478Z" fill="white"/>
<path d="M51.8144 27.6317C51.5976 27.2106 51.0852 27.0472 50.6694 27.2669C50.2539 27.4866 50.0927 28.0061 50.3095 28.4273C50.7234 29.2315 50.9333 30.0993 50.9333 31.0067C50.9333 34.0949 48.4544 36.6072 45.4076 36.6072C42.3608 36.6072 39.8819 34.0949 39.8819 31.0067C39.8819 27.9184 42.3608 25.4061 45.4076 25.4061C46.3577 25.4061 47.2967 25.6573 48.1231 26.1325C48.5306 26.3668 49.0487 26.222 49.28 25.8089C49.5112 25.3957 49.3682 24.8707 48.9606 24.6363C47.8793 24.0145 46.6506 23.6859 45.4076 23.6859C41.4249 23.6859 38.1847 26.97 38.1847 31.0067C38.1847 35.0433 41.4249 38.3274 45.4076 38.3274C49.3903 38.3274 52.6305 35.0433 52.6305 31.0067C52.6305 29.8364 52.3483 28.6693 51.8144 27.6317Z" fill="white"/>
<path d="M48.6706 29.2058L47.0916 28.9733L46.3855 27.5232C46.2004 27.1431 45.8257 26.907 45.4075 26.907C44.9893 26.907 44.6145 27.1431 44.4294 27.5232L43.7234 28.9733L42.1445 29.2058C41.7306 29.2667 41.3932 29.555 41.264 29.9582C41.1348 30.3613 41.2406 30.7955 41.54 31.0912L42.6825 32.2201L42.4128 33.8141C42.3422 34.2319 42.5085 34.6461 42.8468 34.8952C43.0379 35.0359 43.2616 35.1074 43.4867 35.1074C43.66 35.1074 43.8343 35.065 43.9952 34.9793L45.4074 34.2267L46.8195 34.9793C47.1896 35.1764 47.6298 35.1442 47.968 34.8952C48.3063 34.6461 48.4727 34.2318 48.4019 33.814L48.1322 32.2203L49.2747 31.0915C49.574 30.7956 49.68 30.3614 49.5506 29.9583C49.4217 29.555 49.0845 29.2667 48.6706 29.2058ZM46.7194 31.2139C46.4625 31.4678 46.3451 31.8333 46.4058 32.1922L46.5217 32.8768L45.9147 32.5534C45.756 32.469 45.5818 32.4268 45.4077 32.4268C45.2335 32.4268 45.0591 32.4691 44.9001 32.5536L44.2935 32.8768L44.4093 32.1925C44.4702 31.8338 44.3528 31.468 44.0958 31.2139L43.605 30.729L44.2837 30.6291C44.6388 30.5765 44.9455 30.3505 45.1044 30.0245L45.4076 29.4016L45.711 30.0246C45.8698 30.3507 46.1766 30.5765 46.5321 30.6291L47.2102 30.729L46.7194 31.2139Z" fill="white"/>
<path d="M37.8826 18.6455V15.7366C37.8826 15.2614 37.5027 14.8765 37.034 14.8765C36.5654 14.8765 36.1854 15.2614 36.1854 15.7366V17.7853H17.5449C17.0762 17.7853 16.6963 18.1703 16.6963 18.6455C16.6963 19.1206 17.0762 19.5056 17.5449 19.5056H37.0341C37.5027 19.5056 37.8826 19.1206 37.8826 18.6455Z" fill="white"/>
<path d="M9.72421 10.0332H30.3375C30.8061 10.0332 31.1861 9.64821 31.1861 9.17309C31.1861 8.69797 30.8061 8.31299 30.3375 8.31299H9.72421C8.61186 8.31299 7.70679 9.23032 7.70679 10.3577V17.4608C7.70679 18.5883 8.61186 19.5056 9.72421 19.5056H13.9179C14.3866 19.5056 14.7665 19.1206 14.7665 18.6455C14.7665 18.1704 14.3866 17.7854 13.9179 17.7854H9.72421C9.5477 17.7854 9.404 17.6397 9.404 17.4608V10.3577C9.40412 10.1788 9.5477 10.0332 9.72421 10.0332Z" fill="white"/>
<path d="M8.55552 26.8148H30.8527C31.3213 26.8148 31.7013 26.4298 31.7013 25.9547C31.7013 25.4796 31.3213 25.0946 30.8527 25.0946H8.55552C8.08686 25.0946 7.70691 25.4796 7.70691 25.9547C7.70691 26.4298 8.08675 26.8148 8.55552 26.8148Z" fill="white"/>
<path d="M8.55552 32.5579H30.8527C31.3213 32.5579 31.7013 32.1729 31.7013 31.6978C31.7013 31.2226 31.3213 30.8376 30.8527 30.8376H8.55552C8.08686 30.8376 7.70691 31.2226 7.70691 31.6978C7.70691 32.1729 8.08675 32.5579 8.55552 32.5579Z" fill="white"/>
<path d="M32.9867 36.5808H8.55552C8.08686 36.5808 7.70691 36.9658 7.70691 37.4409C7.70691 37.916 8.08686 38.301 8.55552 38.301H32.9867C33.4554 38.301 33.8353 37.916 33.8353 37.4409C33.8353 36.9658 33.4554 36.5808 32.9867 36.5808Z" fill="white"/>
<path d="M35.6389 42.3239H8.55552C8.08686 42.3239 7.70691 42.7088 7.70691 43.184C7.70691 43.6591 8.08686 44.0441 8.55552 44.0441H35.6389C36.1076 44.0441 36.4875 43.6591 36.4875 43.184C36.4875 42.7088 36.1076 42.3239 35.6389 42.3239Z" fill="white"/>
<path d="M7.70691 48.927C7.70691 49.4021 8.08686 49.7871 8.55552 49.7871H37.0341C37.5028 49.7871 37.8827 49.4021 37.8827 48.927C37.8827 48.4519 37.5028 48.0669 37.0341 48.0669H8.55552C8.08675 48.0669 7.70691 48.4519 7.70691 48.927Z" fill="white"/>
</g>
<defs>
<clipPath id="clip0">
<rect width="58.2114" height="59" fill="white"/>
</clipPath>
</defs>
</svg>
