<svg width="61" height="60" viewBox="0 0 61 60" fill="none" xmlns="http://www.w3.org/2000/svg">
<path d="M56.1553 19.5903L53.5294 17.7452L53.493 14.5434C53.4909 14.3566 53.4328 14.1746 53.3261 14.0209C53.2195 13.8671 53.0692 13.7487 52.8946 13.6807L49.9023 12.5162L49.101 9.41577C49.0542 9.23479 48.9542 9.07187 48.8138 8.94794C48.6734 8.82401 48.4991 8.74473 48.3132 8.72027L45.1292 8.29921L43.6092 5.47851C43.5203 5.31395 43.3841 5.17959 43.2181 5.0926C43.0521 5.00561 42.8638 4.96995 42.6774 4.99019L39.4837 5.34175L37.3272 2.96718C37.2013 2.82841 37.0366 2.73041 36.8543 2.6858C36.6719 2.64118 36.4804 2.652 36.3043 2.71687L33.29 3.82417L30.6264 2.03495C30.4711 1.93062 30.2881 1.87488 30.1007 1.87488C29.9134 1.87488 29.7304 1.93062 29.575 2.03495L26.9111 3.82417L23.8966 2.71675C23.7205 2.652 23.5289 2.64124 23.3466 2.68587C23.1643 2.7305 22.9996 2.82847 22.8736 2.96718L20.7178 5.34128L17.5242 4.99031C17.3377 4.96968 17.1493 5.00517 16.9832 5.0922C16.8171 5.17923 16.681 5.31381 16.5924 5.47863L15.0724 8.29933L11.8875 8.72038C11.7015 8.74485 11.5272 8.82415 11.3868 8.9481C11.2465 9.07206 11.1465 9.235 11.0997 9.41601L10.2985 12.5164L7.30618 13.6809C7.13154 13.7489 6.98127 13.8674 6.87466 14.0211C6.76804 14.1748 6.70994 14.3567 6.70781 14.5435L6.67136 17.7453L4.04602 19.5905C3.89264 19.6982 3.7751 19.8493 3.70854 20.0241C3.64197 20.199 3.6294 20.3897 3.67246 20.5718L4.40969 23.689L2.307 26.1094C2.18432 26.2507 2.1068 26.4252 2.08439 26.6107C2.06197 26.7962 2.09568 26.9842 2.18119 27.1505L3.64636 30L2.18119 32.8491C2.09568 33.0153 2.06197 33.2033 2.08439 33.3888C2.1068 33.5743 2.18432 33.7489 2.307 33.8902L4.40934 36.3115L3.67211 39.4287C3.62909 39.6107 3.64168 39.8014 3.70827 39.9763C3.77486 40.1511 3.8924 40.3021 4.04578 40.4099L6.67171 42.255L6.70816 45.4568C6.71027 45.6437 6.76836 45.8256 6.87498 45.9794C6.98159 46.1331 7.13188 46.2515 7.30653 46.3195L10.2992 47.4844L11.1005 50.5848C11.1473 50.7658 11.2473 50.9287 11.3877 51.0526C11.528 51.1766 11.7024 51.2558 11.8883 51.2803L15.0727 51.7014L16.5927 54.5221C16.6817 54.6866 16.8178 54.821 16.9838 54.908C17.1498 54.995 17.3381 55.0306 17.5245 55.0104L20.7183 54.6594L22.8747 57.0334C23.0007 57.1721 23.1654 57.27 23.3477 57.3146C23.53 57.3592 23.7215 57.3485 23.8976 57.2837L26.9119 56.1764L29.5759 57.9656C29.7312 58.07 29.9142 58.1257 30.1016 58.1257C30.2889 58.1257 30.4719 58.07 30.6273 57.9656L33.2912 56.1764L36.3057 57.2838C36.4818 57.3484 36.6733 57.3591 36.8556 57.3145C37.0379 57.2699 37.2026 57.172 37.3287 57.0334L39.4851 54.6593L42.6787 55.0109C42.8652 55.0313 43.0535 54.9958 43.2196 54.9088C43.3856 54.8218 43.5218 54.6873 43.6105 54.5225L45.1305 51.7018L48.315 51.2808C48.501 51.2563 48.6753 51.177 48.8157 51.0531C48.9561 50.9291 49.0561 50.7662 49.1028 50.5851L49.904 47.4847L52.8964 46.3202C53.071 46.2522 53.2213 46.1338 53.3279 45.9801C53.4345 45.8264 53.4926 45.6445 53.4947 45.4576L53.5312 42.2558L56.1571 40.4107C56.3105 40.3029 56.428 40.1519 56.4946 39.977C56.5611 39.8021 56.5737 39.6114 56.5307 39.4294L55.7934 36.3122L57.8945 33.8906C58.0171 33.7493 58.0947 33.5747 58.1171 33.3892C58.1395 33.2037 58.1058 33.0158 58.0203 32.8495L56.5551 30L58.0203 27.1509C58.1058 26.9847 58.1395 26.7967 58.1171 26.6112C58.0947 26.4257 58.0171 26.2511 57.8945 26.1098L55.7921 23.6885L56.5294 20.5713C56.5723 20.3893 56.5596 20.1986 56.493 20.0238C56.4263 19.849 56.3087 19.698 56.1553 19.5903ZM56.0567 26.8585L54.6611 29.5725C54.5929 29.7048 54.5574 29.8515 54.5574 30.0002C54.5574 30.149 54.5929 30.2956 54.6611 30.428L56.0567 33.1419L54.0548 35.4471C53.9573 35.5593 53.888 35.6928 53.8525 35.8369C53.817 35.981 53.8163 36.1314 53.8504 36.2757L54.5521 39.2425L52.0524 40.999C51.9307 41.0845 51.8311 41.1976 51.7618 41.3289C51.6926 41.4603 51.6556 41.6061 51.6539 41.7545L51.6186 44.803L48.7688 45.9121C48.63 45.9661 48.506 46.0523 48.4071 46.1635C48.3083 46.2747 48.2373 46.4077 48.2002 46.5516L47.437 49.5047L44.4042 49.9056C44.2564 49.925 44.1153 49.9792 43.9927 50.0637C43.87 50.1482 43.7693 50.2605 43.6987 50.3914L42.2525 53.0766L39.2123 52.7423C39.0644 52.7262 38.9147 52.7452 38.7756 52.7978C38.6365 52.8504 38.5119 52.9351 38.4119 53.045L36.3593 55.305L33.4892 54.2503C33.3493 54.1991 33.1993 54.1816 33.0514 54.1994C32.9034 54.2172 32.7619 54.2697 32.6382 54.3526L30.1007 56.0571L27.5632 54.3528C27.4396 54.2699 27.2981 54.2173 27.1501 54.1995C27.0022 54.1818 26.8521 54.1993 26.7123 54.2507L23.8424 55.3053L21.7898 53.0455C21.6898 52.9356 21.5652 52.8509 21.4261 52.7983C21.287 52.7457 21.1373 52.7267 20.9894 52.7428L17.9491 53.077L16.5018 50.3906C16.4313 50.2597 16.3305 50.1474 16.2079 50.0629C16.0852 49.9784 15.9441 49.9242 15.7963 49.9048L12.7637 49.5039L12.0004 46.5507C11.9632 46.4069 11.8922 46.2739 11.7934 46.1627C11.6945 46.0516 11.5706 45.9654 11.4317 45.9114L8.58193 44.8023L8.54818 41.7539C8.54651 41.6055 8.50952 41.4596 8.44024 41.3283C8.37097 41.1969 8.27139 41.0838 8.1497 40.9983L5.64994 39.2419L6.35154 36.275C6.38572 36.1307 6.38502 35.9803 6.34949 35.8362C6.31396 35.6922 6.24463 35.5586 6.14718 35.4465L4.14478 33.1414L5.54035 30.4275C5.60853 30.2952 5.64409 30.1485 5.64409 29.9998C5.64409 29.851 5.60853 29.7044 5.54035 29.572L4.14478 26.8585L6.14671 24.5534C6.24412 24.4412 6.31344 24.3076 6.34897 24.1636C6.38449 24.0195 6.38521 23.8691 6.35107 23.7247L5.64935 20.758L8.14911 19.0015C8.27079 18.916 8.37035 18.8029 8.43963 18.6715C8.5089 18.5402 8.54591 18.3943 8.5476 18.246L8.58287 15.1975L11.4327 14.0884C11.5715 14.0343 11.6955 13.9481 11.7943 13.837C11.8932 13.7258 11.9641 13.5928 12.0013 13.4489L12.7645 10.4958L15.7973 10.0949C15.9451 10.0754 16.0861 10.0212 16.2088 9.93673C16.3315 9.85226 16.4322 9.73993 16.5028 9.60902L17.949 6.92343L20.9892 7.25765C21.1371 7.2737 21.2867 7.25464 21.4258 7.20204C21.5649 7.14943 21.6896 7.06476 21.7895 6.95495L23.8421 4.69499L26.7123 5.74968C26.8521 5.80092 27.0022 5.81836 27.1501 5.80058C27.298 5.78279 27.4396 5.73029 27.5632 5.64738L30.1007 3.94288L32.6382 5.64714C32.7618 5.73013 32.9034 5.78267 33.0514 5.80044C33.1993 5.81821 33.3494 5.80069 33.4892 5.74933L36.3591 4.69464L38.4117 6.95449C38.5117 7.06432 38.6363 7.14901 38.7754 7.20162C38.9145 7.25423 39.0642 7.27327 39.2121 7.25718L42.2523 6.92296L43.6997 9.60937C43.7702 9.74028 43.871 9.85261 43.9936 9.93708C44.1163 10.0216 44.2573 10.0758 44.4051 10.0952L47.4378 10.4961L48.2011 13.4493C48.2383 13.5931 48.3092 13.7261 48.4081 13.8373C48.507 13.9484 48.6309 14.0346 48.7697 14.0886L51.6195 15.1977L51.6533 18.2461C51.655 18.3945 51.692 18.5404 51.7612 18.6717C51.8305 18.8031 51.9301 18.9162 52.0518 19.0017L54.5515 20.7581L53.8499 23.725C53.8157 23.8693 53.8164 24.0197 53.852 24.1637C53.8875 24.3078 53.9568 24.4414 54.0543 24.5535L56.0567 26.8585Z" fill="white"/>
<path d="M47.0324 29.9999V30.0393H48.9137V29.9999C48.9137 29.3459 48.8798 28.6923 48.8123 28.0417L46.9412 28.2353C47.0019 28.8216 47.0323 29.4106 47.0324 29.9999Z" fill="white"/>
<path d="M14.62 36.8456L12.9009 37.6073C13.168 38.2055 13.4663 38.7894 13.7945 39.3566L15.4242 38.4198C15.1288 37.9094 14.8604 37.3839 14.62 36.8456Z" fill="white"/>
<path d="M17.4935 43.9174C17.9808 44.3559 18.4906 44.769 19.0209 45.1548L20.1298 43.6407C19.6524 43.2933 19.1935 42.9214 18.7548 42.5265L17.4935 43.9174Z" fill="white"/>
<path d="M42.6859 18.7108C43.0815 19.1489 43.4541 19.607 43.8021 20.0835L45.3234 18.9803C44.9369 18.4516 44.5232 17.9431 44.0841 17.4569L42.6859 18.7108Z" fill="white"/>
<path d="M24.2588 47.8282C24.8834 48.0311 25.5183 48.2012 26.1608 48.338L26.553 46.5042C25.9752 46.3813 25.4043 46.2282 24.8426 46.0457L24.2588 47.8282Z" fill="white"/>
<path d="M46.666 26.4915L48.5066 26.1035C48.3706 25.4628 48.2009 24.8297 47.9982 24.2068L46.2092 24.7852C46.3914 25.3456 46.5439 25.9151 46.666 26.4915Z" fill="white"/>
<path d="M45.5743 23.1373L47.2926 22.3739C47.025 21.7757 46.7263 21.192 46.3974 20.625L44.7689 21.5639C45.0648 22.074 45.3336 22.5992 45.5743 23.1373Z" fill="white"/>
<path d="M28.1049 48.6456C28.7575 48.714 29.4133 48.7488 30.0695 48.7499L30.0726 46.8749C29.4813 46.874 28.8904 46.8427 28.3024 46.7811L28.1049 48.6456Z" fill="white"/>
<path d="M16.3884 39.9014L14.8658 41.0029C15.2516 41.5325 15.6647 42.0417 16.1036 42.5285L17.5028 41.2752C17.1078 40.8368 16.7358 40.3782 16.3884 39.9014Z" fill="white"/>
<path d="M42.6924 16.0689C42.2048 15.6308 41.6946 15.2182 41.1639 14.8329L40.0568 16.3488C40.5344 16.6957 40.9936 17.067 41.4325 17.4614L42.6924 16.0689Z" fill="white"/>
<path d="M39.5141 13.7626C38.9458 13.4349 38.3607 13.137 37.7612 12.8701L36.9943 14.5822C37.5337 14.8224 38.0602 15.0905 38.5716 15.3854L39.5141 13.7626Z" fill="white"/>
<path d="M24.8775 13.9428L24.2978 12.1592C23.6727 12.3612 23.0587 12.5959 22.4584 12.8623L23.2234 14.5752C23.7633 14.3357 24.3154 14.1246 24.8775 13.9428Z" fill="white"/>
<path d="M28.3395 13.2151L28.1464 11.35C27.4933 11.4173 26.844 11.5185 26.2014 11.6533L26.5894 13.4881C27.1676 13.3666 27.7518 13.2755 28.3395 13.2151Z" fill="white"/>
<path d="M32.0761 11.3521C31.4233 11.2844 30.7675 11.2504 30.1112 11.25L30.1102 13.125C30.7015 13.1254 31.2923 13.1561 31.8804 13.217L32.0761 11.3521Z" fill="white"/>
<path d="M35.923 12.1655C35.2982 11.9633 34.6633 11.7938 34.0207 11.6577L33.6301 13.4918C34.2081 13.6143 34.7792 13.7669 35.3412 13.9488L35.923 12.1655Z" fill="white"/>
<path d="M43.7812 39.9449L45.3004 41.0511C45.6876 40.5227 46.0469 39.9745 46.377 39.4089L44.7506 38.4666C44.4534 38.9758 44.1299 39.4692 43.7812 39.9449Z" fill="white"/>
<path d="M38.5405 44.6325L39.4799 46.2571C40.0488 45.9302 40.6003 45.5739 41.132 45.1898L40.0279 43.6719C39.5492 44.0176 39.0527 44.3382 38.5405 44.6325Z" fill="white"/>
<path d="M20.6692 46.227C21.2371 46.5554 21.8219 46.854 22.4211 47.1216L23.19 45.4107C22.6508 45.17 22.1246 44.9013 21.6136 44.6057L20.6692 46.227Z" fill="white"/>
<path d="M41.4066 42.5625L42.6633 43.9571C43.1518 43.52 43.6172 43.0579 44.0576 42.5727L42.6623 41.3151C42.2657 41.7523 41.8465 42.1686 41.4066 42.5625Z" fill="white"/>
<path d="M45.5588 36.8961L47.2755 37.6631C47.5442 37.0657 47.7812 36.4546 47.9855 35.8323L46.1975 35.2499C46.0137 35.8094 45.8005 36.3589 45.5588 36.8961Z" fill="white"/>
<path d="M35.3062 46.0627L35.8837 47.8471C36.5091 47.646 37.1234 47.4121 37.7241 47.1465L36.961 45.4326C36.4209 45.6715 35.8685 45.8818 35.3062 46.0627Z" fill="white"/>
<path d="M13.5392 26.4727L11.6993 26.0833C11.563 26.7235 11.4603 27.3704 11.3917 28.0213L13.2627 28.217C13.3243 27.6311 13.4166 27.0489 13.5392 26.4727Z" fill="white"/>
<path d="M13.1691 30V29.9803H11.2878V30C11.2878 30.6472 11.321 31.2939 11.3872 31.9377L13.2586 31.7459C13.199 31.1658 13.1691 30.5831 13.1691 30Z" fill="white"/>
<path d="M31.8433 46.7867L32.0343 48.6521C32.6875 48.5854 33.3368 48.4849 33.9795 48.3509L33.5939 46.5157C33.0155 46.6363 32.4311 46.7268 31.8433 46.7867Z" fill="white"/>
<path d="M14.6351 23.1211L12.9174 22.356C12.6496 22.9538 12.4133 23.5651 12.2097 24.1876L13.9985 24.7683C14.1816 24.2085 14.3941 23.6587 14.6351 23.1211Z" fill="white"/>
<path d="M13.5316 33.4904L11.6906 33.8763C11.8259 34.5171 11.9949 35.1504 12.1969 35.7736L13.987 35.1968C13.8053 34.6364 13.6533 34.0668 13.5316 33.4904Z" fill="white"/>
<path d="M46.6582 33.5452L48.498 33.9373C48.6351 33.2971 48.7385 32.6503 48.8078 31.9995L46.937 31.8018C46.8746 32.3873 46.7815 32.9693 46.6582 33.5452Z" fill="white"/>
<path d="M18.7809 17.4506L17.5227 16.0568C17.0348 16.4945 16.5699 16.9572 16.13 17.4429L17.5267 18.6989C17.9229 18.2615 18.3415 17.8449 18.7809 17.4506Z" fill="white"/>
<path d="M16.4093 20.0703L14.889 18.9657C14.5024 19.4945 14.1436 20.0431 13.8141 20.609L15.4416 21.5496C15.7382 21.0401 16.0612 20.5463 16.4093 20.0703Z" fill="white"/>
<path d="M21.6448 15.3768L20.7042 13.7531C20.1355 14.0807 19.5843 14.4376 19.0529 14.8223L20.1588 16.3392C20.637 15.9928 21.133 15.6716 21.6448 15.3768Z" fill="white"/>
<path d="M45.1511 30C45.1511 27.0333 44.2684 24.1332 42.6147 21.6665C40.9609 19.1997 38.6104 17.2771 35.8603 16.1418C33.1102 15.0065 30.0841 14.7094 27.1646 15.2882C24.2451 15.867 21.5634 17.2956 19.4586 19.3934C17.3537 21.4912 15.9203 24.1639 15.3396 27.0737C14.7589 29.9834 15.0569 32.9994 16.1961 35.7403C17.3352 38.4812 19.2642 40.8238 21.7392 42.472C24.2143 44.1203 27.1241 45 30.1008 45C34.091 44.9955 37.9164 43.4137 40.7379 40.6016C43.5594 37.7895 45.1466 33.9769 45.1511 30ZM30.1008 43.125C27.4962 43.125 24.9501 42.3552 22.7844 40.913C20.6188 39.4709 18.9309 37.421 17.9341 35.0227C16.9374 32.6244 16.6766 29.9854 17.1848 27.4394C17.6929 24.8934 18.9471 22.5548 20.7888 20.7192C22.6306 18.8837 24.9771 17.6336 27.5316 17.1272C30.0862 16.6208 32.734 16.8807 35.1403 17.8741C37.5467 18.8675 39.6034 20.5498 41.0504 22.7081C42.4975 24.8665 43.2698 27.4041 43.2698 30C43.2659 33.4798 41.8771 36.8159 39.4083 39.2764C36.9395 41.737 33.5922 43.1211 30.1008 43.125Z" fill="white"/>
<path d="M38.6807 24.2612C38.151 23.7346 37.4334 23.4388 36.6852 23.4388C35.9371 23.4388 35.2195 23.7346 34.6898 24.2612L26.3381 32.585L24.571 30.8237C24.0418 30.2962 23.324 29.9999 22.5755 29.9999C21.8271 29.9999 21.1093 30.2962 20.5801 30.8237C20.0509 31.3511 19.7535 32.0665 19.7535 32.8124C19.7535 33.5584 20.0509 34.2738 20.5801 34.8012L24.3427 38.5512C24.6047 38.8124 24.9158 39.0196 25.2582 39.1609C25.6006 39.3023 25.9675 39.375 26.3381 39.375C26.7087 39.375 27.0757 39.3023 27.4181 39.1609C27.7605 39.0196 28.0715 38.8124 28.3336 38.5512L38.6807 28.2387C38.9427 27.9776 39.1506 27.6675 39.2924 27.3263C39.4343 26.985 39.5073 26.6193 39.5073 26.2499C39.5073 25.8806 39.4343 25.5149 39.2924 25.1736C39.1506 24.8324 38.9427 24.5223 38.6807 24.2612ZM37.3503 26.9128L27.0032 37.2253C26.8268 37.401 26.5876 37.4997 26.3381 37.4997C26.0887 37.4997 25.8495 37.401 25.6731 37.2253L21.9105 33.4753C21.7374 33.2988 21.6411 33.0614 21.6425 32.8145C21.6439 32.5677 21.7429 32.3314 21.918 32.1569C22.0932 31.9824 22.3303 31.8837 22.5779 31.8824C22.8256 31.881 23.0638 31.977 23.2408 32.1496L25.6732 34.5737C25.8496 34.7494 26.0889 34.8482 26.3383 34.8482C26.5878 34.8482 26.827 34.7494 27.0034 34.5737L36.0203 25.5871C36.1071 25.4976 36.2109 25.4262 36.3256 25.377C36.4404 25.3279 36.5638 25.302 36.6887 25.301C36.8136 25.2999 36.9375 25.3236 37.0531 25.3707C37.1687 25.4179 37.2737 25.4875 37.362 25.5755C37.4504 25.6635 37.5202 25.7682 37.5675 25.8834C37.6148 25.9986 37.6386 26.1221 37.6375 26.2466C37.6364 26.371 37.6105 26.4941 37.5612 26.6084C37.5119 26.7228 37.4402 26.8263 37.3504 26.9128H37.3503Z" fill="white"/>
<path d="M30.1008 7.5C17.6526 7.5 7.52527 17.5935 7.52527 30C7.52527 42.4065 17.6526 52.5 30.1008 52.5C42.5489 52.5 52.6763 42.4065 52.6763 30C52.6763 17.5935 42.5489 7.5 30.1008 7.5ZM30.1008 50.625C18.6899 50.625 9.40656 41.3727 9.40656 30C9.40656 18.6273 18.6899 9.375 30.1008 9.375C41.5116 9.375 50.795 18.6273 50.795 30C50.795 41.3727 41.5116 50.625 30.1008 50.625Z" fill="white"/>
</svg>
