<svg width="164" height="26" viewBox="0 0 164 26" fill="none" xmlns="http://www.w3.org/2000/svg">
<path d="M3.79465 0.779999V5.64C3.79465 8.25 3.64465 10.77 3.19465 13.23C2.86465 14.94 2.38465 16.59 1.69465 18.27L0.314648 18.3L0.464648 25.32H2.92465L3.07465 21H11.9246L12.0746 25.32H14.5346L14.6546 18.3L13.1846 18.27V0.779999H3.79465ZM6.73465 3.57H10.0046V18.21H4.99465C5.50465 16.8 5.95465 15.18 6.19465 13.59C6.58465 11.28 6.73465 8.76 6.73465 6.21V3.57ZM17.0483 0.779999V21H20.2583V12.09H25.0583V21H28.2683V0.779999H25.0583V9.15H20.2583V0.779999H17.0483ZM31.5118 4.23C32.2918 3.75 33.4018 3.3 34.3918 3.3C36.1918 3.3 37.2118 4.38 37.2118 6.03C37.2118 8.01 35.3218 9.24 33.3718 9.24H32.9518V11.7H33.5518C35.8918 11.7 37.8118 12.81 37.8118 15.27C37.8118 17.16 36.5818 18.54 34.3018 18.54C33.1018 18.54 31.9918 18.18 31.1518 17.67L30.5818 20.28C31.5118 20.88 33.0418 21.24 34.5718 21.24C38.2018 21.24 41.1418 19.08 41.1418 15.33C41.1418 12.57 39.5218 10.68 37.0618 10.23V10.17C39.1018 9.6 40.5118 7.59 40.5118 5.49C40.5118 2.76 38.7418 0.539999 35.2018 0.539999C33.3418 0.539999 31.7518 1.11 30.8818 1.77L31.5118 4.23ZM61.086 21H63.996L62.796 0.779999H59.346L57.456 8.97C56.856 11.61 56.406 13.71 56.046 15.99H55.986C55.596 13.71 55.086 11.58 54.456 8.97L52.506 0.779999H49.116L47.766 21H50.556L50.916 13.29C51.036 10.89 51.156 8.22 51.186 5.94H51.276C51.636 8.19 52.176 10.71 52.716 12.75L54.696 20.76H56.886L58.986 12.54C59.466 10.59 60.006 8.16 60.396 5.94H60.486C60.456 8.16 60.576 10.92 60.696 13.2L61.086 21ZM66.9995 20.94C67.7795 21.06 68.8895 21.15 70.3595 21.15C73.2695 21.15 75.2495 20.49 76.4195 19.2C77.3495 18.21 77.8895 16.86 77.8895 15.21C77.8895 12.78 76.5695 10.89 74.2295 10.23V10.14C76.2095 9.3 77.2295 7.59 77.2295 5.7C77.2295 4.26 76.7795 2.97 75.7895 2.1C74.5595 0.989998 72.8495 0.689999 70.9895 0.689999C69.4595 0.689999 68.0795 0.809999 66.9995 1.08V20.94ZM70.1795 3.24C70.4495 3.15 70.8395 3.12 71.3195 3.12C73.2995 3.12 74.0795 4.38 74.0795 6.06C74.0795 7.89 72.7595 9.21 71.1395 9.21H70.1795V3.24ZM70.1795 11.61H71.1095C72.9395 11.64 74.5895 12.81 74.5895 15.18C74.5895 17.49 73.1495 18.66 71.1995 18.66C70.7795 18.66 70.4495 18.63 70.1795 18.57V11.61ZM80.5932 0.779999V21H83.8032V3.57H88.4832V21H91.6932V0.779999H80.5932ZM93.3517 0.779999L98.0017 14.67C98.1517 15.09 98.1517 15.45 98.0317 15.84C97.6717 17.04 96.6817 18.66 95.3917 18.66C95.0317 18.66 94.7617 18.63 94.5817 18.6L94.4617 21.21C94.8217 21.3 95.2417 21.36 95.8117 21.36C97.4317 21.36 98.8717 20.25 99.8017 18.6C100.972 16.44 101.782 13.26 102.442 10.86L105.172 0.779999H101.932L100.372 8.7C100.162 9.9 99.9817 11.16 99.8017 12.12H99.6817C99.5017 11.13 99.2317 9.99 98.9017 8.76L96.8017 0.779999H93.3517ZM118.371 15.72L119.451 21H122.571L118.401 0.779999H114.651L110.151 21H113.271L114.351 15.72H118.371ZM114.711 13.23L115.611 8.58C115.851 7.32 116.151 5.4 116.361 3.99H116.451C116.691 5.4 116.961 7.26 117.201 8.58L118.041 13.23H114.711ZM125.617 21H128.827V3.72H132.487V0.779999H121.987V3.72H125.617V21ZM134.646 0.779999V20.94C135.426 21.06 136.536 21.15 138.006 21.15C140.706 21.15 142.716 20.43 144.006 19.05C144.996 17.94 145.566 16.44 145.566 14.55C145.566 12.57 144.876 11.04 143.736 9.99C142.656 9 141.126 8.46 139.386 8.46C138.846 8.46 138.366 8.49 137.826 8.58V3.54H144.156V0.779999H134.646ZM137.826 11.13C138.186 11.07 138.516 11.04 138.846 11.04C139.896 11.04 140.766 11.49 141.366 12.15C141.936 12.81 142.266 13.71 142.266 14.76C142.266 15.78 141.966 16.71 141.426 17.4C140.856 18.12 139.986 18.57 138.846 18.57C138.486 18.57 138.156 18.54 137.826 18.48V11.13ZM160.842 21H163.752L162.552 0.779999H159.102L157.212 8.97C156.612 11.61 156.162 13.71 155.802 15.99H155.742C155.352 13.71 154.842 11.58 154.212 8.97L152.262 0.779999H148.872L147.522 21H150.312L150.672 13.29C150.792 10.89 150.912 8.22 150.942 5.94H151.032C151.392 8.19 151.932 10.71 152.472 12.75L154.452 20.76H156.642L158.742 12.54C159.222 10.59 159.762 8.16 160.152 5.94H160.242C160.212 8.16 160.332 10.92 160.452 13.2L160.842 21Z" fill="#00C100"/>
</svg>
