<svg width="28" height="28" viewBox="0 0 28 28" fill="none" xmlns="http://www.w3.org/2000/svg">
<path fill-rule="evenodd" clip-rule="evenodd" d="M14 12C16.7614 12 19 9.76143 19 7.00003C19 4.23857 16.7614 2 14 2C11.2386 2 9 4.23857 9 7.00003C9 9.76143 11.2386 12 14 12Z" fill="#CE1E2E"/>
<path fill-rule="evenodd" clip-rule="evenodd" d="M8 16.0713C8 14.1895 9.27808 12.5892 11.0604 12C11.9427 12.4242 12.9417 12.6634 14 12.6634C15.0583 12.6634 16.0573 12.4242 16.9396 12C18.7219 12.5892 20 14.1895 20 16.0713V18.0415C20 18.5709 19.5449 19 18.9836 19H9.01647C8.45509 19 8 18.5709 8 18.0415V16.0713Z" fill="#CE1E2E"/>
<rect x="2" y="20" width="24" height="4" rx="0.5" fill="#CE1E2E"/>
<rect x="10" y="25" width="8" height="2" rx="0.5" fill="#CE1E2E"/>
</svg>
