<svg width="28" height="28" viewBox="0 0 28 28" fill="none" xmlns="http://www.w3.org/2000/svg">
<path d="M6 23H21C21 24.6569 19.6569 26 18 26H9C7.34315 26 6 24.6569 6 23Z" fill="#CE1E2E"/>
<path fill-rule="evenodd" clip-rule="evenodd" d="M11.7724 12.9726C12.7115 13.2711 13.676 13.2969 14.5896 13.0928L14.6258 13.1686C13.4586 13.4933 12.1869 13.4934 10.9461 13.0989C8.15121 12.2104 6.38424 9.5963 6.44678 6.80559C6.32744 6.79861 6.20716 6.79507 6.08607 6.79507C2.72482 6.79507 0 9.5199 0 12.8811C0 16.2424 2.72482 18.9672 6.08607 18.9672C6.1273 18.9672 6.16844 18.9668 6.20947 18.966V22.0409H21.3939V18.9669C21.4143 18.9671 21.4347 18.9672 21.4552 18.9672C24.8164 18.9672 27.5413 16.2424 27.5413 12.8811C27.5413 9.5199 24.8164 6.79507 21.4552 6.79507C21.1123 6.79507 20.776 6.82344 20.4485 6.87795C19.5469 4.04901 16.8977 2 13.7699 2C11.8151 2 10.0472 2.80037 8.77603 4.09129C8.53683 4.50005 8.33807 4.94315 8.1877 5.41611C7.16444 8.63469 8.76936 12.0178 11.7724 12.9726Z" fill="#CE1E2E"/>
</svg>
