<svg width="28" height="28" viewBox="0 0 28 28" fill="none" xmlns="http://www.w3.org/2000/svg">
<path d="M9.01531 15.309L12.3969 12.014L4.03153 3.92126C2.19261 5.71305 2.19261 8.66141 4.03153 10.4531L9.01531 15.309Z" fill="#004BFF"/>
<path d="M17.0844 13.2279C18.9238 14.0373 21.4748 13.4593 23.3138 11.6095C25.5681 9.41297 26.0432 6.23355 24.2633 4.55699C22.5426 2.82285 19.2796 3.28578 17.0252 5.48236C15.1266 7.33216 14.5334 9.81776 15.3642 11.5519C12.7534 14.1533 3.79492 22.8817 3.79492 22.8817L5.45616 24.5L13.6434 16.523L21.8306 24.5L23.4917 22.8817L15.3044 14.9045L17.0844 13.2279Z" fill="#004BFF"/>
</svg>
