<svg width="46" height="55" viewBox="0 0 46 55" fill="none" xmlns="http://www.w3.org/2000/svg">
<path d="M7.17383 6.875C7.17383 5.05164 7.89942 3.30295 9.19097 2.01364C10.4825 0.724328 12.2343 0 14.0608 0H26.4091C27.7785 0.00120348 29.0914 0.545239 30.0592 1.5125L43.5404 14.9669C44.5081 15.9335 45.0518 17.2441 45.0521 18.6106V41.25C45.0521 43.0734 44.3265 44.822 43.0349 46.1114C41.7434 47.4007 39.9917 48.125 38.1651 48.125H14.0608C12.2343 48.125 10.4825 47.4007 9.19097 46.1114C7.89942 44.822 7.17383 43.0734 7.17383 41.25V6.875ZM14.0608 3.4375C13.1475 3.4375 12.2717 3.79966 11.6259 4.44432C10.9801 5.08898 10.6173 5.96332 10.6173 6.875V41.25C10.6173 42.1617 10.9801 43.036 11.6259 43.6807C12.2717 44.3253 13.1475 44.6875 14.0608 44.6875H38.1651C39.0784 44.6875 39.9543 44.3253 40.6 43.6807C41.2458 43.036 41.6086 42.1617 41.6086 41.25V20.625H29.5564C28.1865 20.625 26.8727 20.0818 25.9041 19.1148C24.9354 18.1478 24.3912 16.8363 24.3912 15.4688V3.4375H14.0608ZM27.8347 4.14906V15.4688C27.8347 15.9246 28.0161 16.3618 28.339 16.6841C28.6619 17.0064 29.0998 17.1875 29.5564 17.1875H40.8958L27.8347 4.14906Z" fill="#FCC125"/>
<path d="M0.287109 10.3125C0.287109 9.40082 0.649904 8.52648 1.29568 7.88182C1.94146 7.23716 2.81732 6.875 3.73059 6.875V41.25C3.73059 43.985 4.81897 46.6081 6.7563 48.542C8.69363 50.476 11.3212 51.5625 14.061 51.5625H38.1654C38.1654 52.4742 37.8026 53.3485 37.1568 53.9932C36.511 54.6378 35.6352 55 34.7219 55H13.8544C10.2561 55 6.80524 53.5731 4.26088 51.0331C1.71652 48.4932 0.287109 45.0483 0.287109 41.4563V10.3125Z" fill="#FCC125"/>
</svg>
