<svg width="17" height="16" viewBox="0 0 17 16" fill="none" xmlns="http://www.w3.org/2000/svg">
<path d="M14.4375 15.2188H14.3365C2.66935 14.5478 1.01279 4.70344 0.781229 1.69906C0.762571 1.46547 0.790188 1.23049 0.862499 1.00759C0.934809 0.784686 1.05039 0.578243 1.20262 0.400087C1.35486 0.221931 1.54075 0.0755646 1.74964 -0.0306266C1.95854 -0.136818 2.18633 -0.200746 2.41998 -0.218749H5.69154C5.92937 -0.21898 6.16179 -0.147791 6.3587 -0.0144034C6.5556 0.118984 6.70792 0.308423 6.79592 0.529376L7.69842 2.75C7.78531 2.96586 7.80688 3.20248 7.76043 3.43049C7.71399 3.6585 7.60158 3.86784 7.43717 4.0325L6.17248 5.30906C6.37003 6.43169 6.90765 7.46655 7.71261 8.27363C8.51756 9.08071 9.551 9.62105 10.6731 9.82156L11.9615 8.545C12.1287 8.38241 12.34 8.27262 12.5691 8.22933C12.7982 8.18604 13.035 8.21116 13.25 8.30156L15.4884 9.19813C15.706 9.2889 15.8917 9.44241 16.0218 9.63909C16.1518 9.83576 16.2204 10.0667 16.2187 10.3025V13.4375C16.2187 13.9099 16.0311 14.363 15.697 14.697C15.363 15.0311 14.9099 15.2187 14.4375 15.2188ZM2.56248 0.968751C2.40501 0.968751 2.25398 1.03131 2.14263 1.14266C2.03128 1.25401 1.96873 1.40503 1.96873 1.5625V1.61C2.24185 5.125 3.99342 13.4375 14.4019 14.0312C14.4799 14.0361 14.558 14.0254 14.6319 14C14.7058 13.9745 14.774 13.9347 14.8324 13.8829C14.8909 13.831 14.9386 13.7681 14.9727 13.6978C15.0068 13.6275 15.0267 13.5511 15.0312 13.4731V10.3025L12.7928 9.40594L11.0887 11.0981L10.8037 11.0625C5.6381 10.4153 4.93748 5.24969 4.93748 5.19625L4.90185 4.91125L6.5881 3.20719L5.69748 0.968751H2.56248Z" fill="#FFFF00"/>
</svg>
